<svg width="462" height="212" viewBox="0 0 462 212" fill="none" xmlns="http://www.w3.org/2000/svg">
<rect width="462" height="212" fill="white"/>
<rect x="24" y="14" width="24" height="24" fill="#FAFAFA"/>
<rect x="24" y="46" width="24" height="24" fill="#F5F5F5"/>
<rect x="24" y="78" width="24" height="24" fill="#F5F5F5"/>
<rect x="24" y="110" width="24" height="24" fill="#F5F5F5"/>
<rect x="24" y="142" width="24" height="24" fill="#FEE2E2"/>
<rect x="24" y="174" width="24" height="24" fill="#F5F5F5"/>
<rect x="180" y="14" width="24" height="24" fill="#F5F5F5"/>
<rect x="180" y="46" width="24" height="24" fill="#F5F5F5"/>
<rect x="180" y="78" width="24" height="24" fill="#F5F5F5"/>
<rect x="180" y="110" width="24" height="24" fill="#F5F5F5"/>
<rect x="180" y="142" width="24" height="24" fill="#F5F5F5"/>
<rect x="180" y="174" width="24" height="24" fill="#F5F5F5"/>
<rect x="336" y="14" width="24" height="24" fill="#F5F5F5"/>
<rect x="336" y="46" width="24" height="24" fill="#F5F5F5"/>
<rect x="336" y="78" width="24" height="24" fill="#F5F5F5"/>
<rect x="348" y="110" width="24" height="24" fill="#FEE2E2"/>
<rect x="336" y="142" width="24" height="24" fill="#F5F5F5"/>
<rect x="336" y="174" width="24" height="24" fill="#FAFAFA"/>
<rect x="76" y="14" width="24" height="24" fill="#F5F5F5"/>
<rect x="76" y="46" width="24" height="24" fill="#F5F5F5"/>
<rect x="76" y="78" width="24" height="24" fill="#F5F5F5"/>
<rect x="76" y="110" width="24" height="24" fill="#F5F5F5"/>
<rect x="76" y="142" width="24" height="24" fill="#F5F5F5"/>
<rect x="76" y="174" width="24" height="24" fill="#F5F5F5"/>
<rect x="232" y="14" width="24" height="24" fill="#F5F5F5"/>
<rect x="232" y="46" width="24" height="24" fill="#F5F5F5"/>
<rect x="232" y="78" width="24" height="24" fill="#F5F5F5"/>
<rect x="232" y="110" width="24" height="24" fill="#F5F5F5"/>
<rect x="232" y="142" width="24" height="24" fill="#F5F5F5"/>
<rect x="232" y="174" width="24" height="24" fill="#F5F5F5"/>
<rect x="388" y="14" width="24" height="24" fill="#F5F5F5"/>
<rect x="388" y="46" width="24" height="24" fill="#F5F5F5"/>
<rect x="388" y="78" width="24" height="24" fill="#F5F5F5"/>
<rect x="393" y="110" width="24" height="24" fill="#FEE2E2"/>
<rect x="388" y="142" width="24" height="24" fill="#F5F5F5"/>
<rect x="388" y="174" width="24" height="24" fill="#FAFAFA"/>
<rect x="128" y="14" width="24" height="24" fill="#F5F5F5"/>
<rect x="128" y="46" width="24" height="24" fill="#F5F5F5"/>
<rect x="128" y="78" width="24" height="24" fill="#FEE2E2"/>
<rect x="128" y="110" width="24" height="24" fill="#F5F5F5"/>
<rect x="128" y="142" width="24" height="24" fill="#F5F5F5"/>
<rect x="128" y="174" width="24" height="24" fill="#F5F5F5"/>
<rect x="284" y="14" width="24" height="24" fill="#F5F5F5"/>
<rect x="284" y="46" width="24" height="24" fill="#F5F5F5"/>
<rect x="284" y="78" width="24" height="24" fill="#F5F5F5"/>
<rect x="284" y="110" width="24" height="24" fill="#F5F5F5"/>
<rect x="284" y="142" width="24" height="24" fill="#F5F5F5"/>
<rect x="284" y="174" width="24" height="24" fill="#FAFAFA"/>
<rect x="50" y="14" width="24" height="24" fill="#FAFAFA"/>
<rect x="50" y="46" width="24" height="24" fill="#F5F5F5"/>
<rect x="50" y="78" width="24" height="24" fill="#F5F5F5"/>
<rect x="50" y="110" width="24" height="24" fill="#F5F5F5"/>
<rect x="50" y="142" width="24" height="24" fill="#F5F5F5"/>
<rect x="50" y="174" width="24" height="24" fill="#F5F5F5"/>
<rect x="206" y="14" width="24" height="24" fill="#F5F5F5"/>
<rect x="206" y="46" width="24" height="24" fill="#F5F5F5"/>
<rect x="206" y="78" width="24" height="24" fill="#F5F5F5"/>
<rect x="206" y="110" width="24" height="24" fill="#F5F5F5"/>
<rect x="206" y="142" width="24" height="24" fill="#F5F5F5"/>
<rect x="206" y="174" width="24" height="24" fill="#F5F5F5"/>
<rect x="362" y="14" width="24" height="24" fill="#F5F5F5"/>
<rect x="362" y="46" width="24" height="24" fill="#F5F5F5"/>
<rect x="362" y="78" width="24" height="24" fill="#F5F5F5"/>
<rect x="374" y="110" width="17" height="24" fill="#FEE2E2"/>
<rect x="362" y="142" width="24" height="24" fill="#F5F5F5"/>
<rect x="362" y="174" width="24" height="24" fill="#FAFAFA"/>
<rect x="102" y="14" width="24" height="24" fill="#F5F5F5"/>
<rect x="102" y="46" width="24" height="24" fill="#F5F5F5"/>
<rect x="102" y="78" width="24" height="24" fill="#F5F5F5"/>
<rect x="102" y="110" width="24" height="24" fill="#F5F5F5"/>
<rect x="102" y="142" width="24" height="24" fill="#F5F5F5"/>
<rect x="102" y="174" width="24" height="24" fill="#F5F5F5"/>
<rect x="258" y="14" width="24" height="24" fill="#F5F5F5"/>
<rect x="258" y="46" width="24" height="24" fill="#F5F5F5"/>
<rect x="258" y="78" width="24" height="24" fill="#F5F5F5"/>
<rect x="258" y="110" width="24" height="24" fill="#F5F5F5"/>
<rect x="258" y="142" width="24" height="24" fill="#F5F5F5"/>
<rect x="258" y="174" width="24" height="24" fill="#F5F5F5"/>
<rect x="414" y="14" width="24" height="24" fill="#F5F5F5"/>
<rect x="414" y="46" width="24" height="24" fill="#F5F5F5"/>
<rect x="440" y="46" width="12" height="24" fill="#FEE2E2"/>
<rect x="414" y="78" width="24" height="24" fill="#F5F5F5"/>
<rect x="419" y="110" width="24" height="24" fill="#FEE2E2"/>
<rect x="414" y="142" width="24" height="24" fill="#F5F5F5"/>
<rect x="414" y="174" width="24" height="24" fill="#FAFAFA"/>
<rect x="154" y="14" width="24" height="24" fill="#F5F5F5"/>
<rect x="154" y="46" width="24" height="24" fill="#F5F5F5"/>
<rect x="154" y="78" width="24" height="24" fill="#FEE2E2"/>
<rect x="154" y="110" width="24" height="24" fill="#F5F5F5"/>
<rect x="154" y="142" width="24" height="24" fill="#F5F5F5"/>
<rect x="154" y="174" width="24" height="24" fill="#F5F5F5"/>
<rect x="310" y="14" width="24" height="24" fill="#F5F5F5"/>
<rect x="310" y="46" width="24" height="24" fill="#F5F5F5"/>
<rect x="310" y="78" width="24" height="24" fill="#F5F5F5"/>
<rect x="310" y="110" width="36" height="24" fill="#FEE2E2"/>
<rect x="310" y="142" width="24" height="24" fill="#F5F5F5"/>
<rect x="310" y="174" width="24" height="24" fill="#FAFAFA"/>
<circle cx="445.5" cy="66.5" r="2.5" stroke="#262626" stroke-width="1.4"/>
<circle cx="327.5" cy="129.5" r="2.5" stroke="#262626" stroke-width="1.4"/>
<rect x="128" y="89.2" width="24" height="1.6" fill="#262626"/>
<rect x="154" y="89.2" width="24" height="1.6" fill="#262626"/>
<path d="M317.97 110.29C318.542 110.29 319.036 110.524 319.4 110.992C319.738 111.46 319.92 112.058 319.92 112.838C319.92 113.982 319.582 114.996 318.906 115.854C318.23 116.686 317.32 117.258 316.228 117.57V116.27C316.904 116.036 317.45 115.672 317.866 115.152C318.256 114.606 318.438 114.034 318.438 113.41C318.334 113.462 318.126 113.488 317.866 113.488C317.424 113.488 317.06 113.332 316.748 113.02C316.436 112.708 316.28 112.344 316.28 111.902C316.28 111.408 316.436 111.018 316.774 110.732C317.06 110.42 317.45 110.29 317.97 110.29ZM312.848 110.29C313.42 110.29 313.888 110.524 314.252 110.992C314.59 111.46 314.772 112.058 314.772 112.838C314.772 113.982 314.434 114.996 313.758 115.854C313.082 116.686 312.172 117.258 311.08 117.57V116.27C311.756 116.036 312.276 115.672 312.692 115.152C313.108 114.606 313.29 114.034 313.29 113.41C313.186 113.462 312.978 113.488 312.718 113.488C312.276 113.488 311.912 113.332 311.626 113.02C311.314 112.708 311.158 112.344 311.158 111.902C311.158 111.408 311.288 111.018 311.6 110.732C311.912 110.42 312.328 110.29 312.848 110.29Z" fill="black"/>
<path d="M375 113.436H377.236L387.74 128.542H387.818V113.436H389.95V132H387.766L377.21 116.738H377.132V132H375V113.436Z" fill="black"/>
<path d="M40.9 142.325L42.525 143.025L37.6 154L42.45 164.975L40.9 165.675L35.75 154L40.9 142.325ZM44.95 142.325L46.5 143.025L41.65 154L46.5 164.975L44.95 165.675L39.8 154L44.95 142.325Z" fill="black"/>
</svg>
