<svg width="685" height="222" viewBox="0 0 685 222" fill="none" xmlns="http://www.w3.org/2000/svg">
<rect width="685" height="222" fill="white"/>
<rect x="32.5" y="60.5" width="124" height="29" fill="#FEF2F2" stroke="#FCA5A5"/>
<rect x="32.5" y="164.5" width="264" height="29" fill="#F0F9FF" stroke="#7DD3FC"/>
<rect x="280.5" y="60.5" width="124" height="29" fill="#FEF2F2" stroke="#FCA5A5"/>
<rect x="348.5" y="164.5" width="51" height="29" fill="#F0FDF4" stroke="#86EFAC"/>
<rect x="156.5" y="60.5" width="124" height="29" fill="#FEF2F2" stroke="#FCA5A5"/>
<rect x="297.5" y="164.5" width="51" height="29" fill="#F0FDF4" stroke="#86EFAC"/>
<rect x="404.5" y="60.5" width="124" height="29" fill="#FEF2F2" stroke="#FCA5A5"/>
<rect x="399.5" y="164.5" width="51" height="29" fill="#F0FDF4" stroke="#86EFAC"/>
<rect x="528.5" y="60.5" width="124" height="29" fill="#FEF2F2" stroke="#FCA5A5"/>
<rect x="450.5" y="164.5" width="51" height="29" fill="#F0FDF4" stroke="#86EFAC"/>
<path d="M34.176 31.992C35.28 32.792 36.208 33.576 36.976 34.376L35.792 35.56C35.136 34.824 34.208 34.008 32.992 33.144L34.176 31.992ZM33.728 35.832C34.768 36.632 35.648 37.416 36.368 38.216L35.184 39.4C34.576 38.648 33.696 37.848 32.544 36.984L33.728 35.832ZM35.264 40.264L36.784 40.888C36.064 42.872 35.264 44.728 34.4 46.456L32.72 45.72C33.696 43.944 34.544 42.12 35.264 40.264ZM38.56 40.296H37.456V38.712H46.16V40.216C45.616 41.592 44.72 42.792 43.504 43.8C44.624 44.44 45.984 44.952 47.568 45.304L46.736 46.824C44.848 46.328 43.296 45.656 42.064 44.824C40.784 45.592 39.28 46.248 37.52 46.76L36.688 45.224C38.272 44.84 39.616 44.36 40.736 43.768C39.712 42.776 38.992 41.624 38.56 40.296ZM42.16 42.856C43.12 42.12 43.84 41.256 44.304 40.296H40.192C40.64 41.288 41.296 42.136 42.16 42.856ZM38.864 32.344H44.88V35.72C44.88 36.04 45.056 36.216 45.408 36.216H47.168V37.784H44.944C43.792 37.784 43.216 37.224 43.216 36.12V33.912H40.512V34.568C40.512 36.232 39.616 37.528 37.856 38.456L36.736 37.176C38.144 36.6 38.864 35.784 38.864 34.744V32.344ZM53.872 37.912V39.192H59.696V37.912H53.872ZM59.696 40.632H53.872V41.88H59.696V40.632ZM59.696 43.32H53.872V46.648H52.304V38.84C51.52 39.736 50.64 40.584 49.68 41.368L48.592 39.944C50.4 38.52 51.824 36.888 52.88 35.064H49.024V33.448H53.68C53.92 32.888 54.128 32.328 54.304 31.752L56.016 31.96C55.856 32.472 55.696 32.968 55.52 33.448H63.152V35.064H54.816C54.56 35.544 54.304 36.008 54.032 36.472H61.264V45.144C61.264 46.072 60.72 46.536 59.648 46.568H57.856L57.456 45.064C58.048 45.112 58.608 45.144 59.12 45.144C59.504 45.144 59.696 44.968 59.696 44.616V43.32ZM66.752 32.072C67.776 32.84 68.64 33.608 69.344 34.376L68.208 35.528C67.584 34.792 66.72 33.992 65.616 33.16L66.752 32.072ZM64.624 36.616H68.32V43.256C68.784 42.84 69.28 42.392 69.808 41.896L70.272 43.656C69.216 44.616 68.096 45.464 66.912 46.232L66.272 44.728C66.544 44.488 66.688 44.184 66.688 43.832V38.216H64.624V36.616ZM70.352 38.536H78.16V40.056C77.712 41.432 76.976 42.632 75.952 43.64C76.944 44.28 78.144 44.84 79.568 45.336L78.672 46.776C77.104 46.136 75.776 45.432 74.72 44.648C73.472 45.528 71.952 46.232 70.128 46.76L69.2 45.352C70.848 44.872 72.24 44.264 73.392 43.528C72.368 42.504 71.648 41.384 71.264 40.136H70.352V38.536ZM72.832 40.136C73.184 41.048 73.76 41.88 74.592 42.616C75.408 41.88 76.032 41.064 76.48 40.136H72.832ZM71.44 32.344H77.2V35.656C77.2 36.008 77.392 36.2 77.792 36.2H79.168V37.72H77.344C76.144 37.72 75.552 37.16 75.552 36.04V33.912H73.088V34.344C73.088 36.008 72.224 37.304 70.528 38.2L69.408 36.92C70.752 36.36 71.44 35.56 71.44 34.52V32.344ZM85.664 36.472H89.792V31.832H91.52V36.472H95.44V38.136H91.52V46.712H89.792V38.136H85.664V36.472ZM82.848 31.96C83.856 32.744 84.72 33.528 85.44 34.296L84.288 35.464C83.68 34.728 82.8 33.944 81.664 33.112L82.848 31.96ZM80.624 36.584H84.432V43.272C84.896 42.872 85.392 42.424 85.92 41.928L86.352 43.64C85.312 44.6 84.208 45.464 83.024 46.232L82.384 44.728C82.672 44.488 82.816 44.2 82.816 43.864V38.184H80.624V36.584ZM98.32 38.728C97.92 39.256 97.504 39.768 97.056 40.28L96.544 38.616C98.08 36.664 99.232 34.392 99.968 31.768L101.472 32.472C101.088 33.752 100.576 34.968 99.968 36.136V46.68H98.32V38.728ZM101.024 34.36H104.976V31.832H106.624V34.36H110.8V35.96H107.856C108.56 38.392 109.76 40.568 111.44 42.488L110.352 43.864C108.592 41.592 107.344 39.048 106.624 36.248V41.96H108.832V43.56H106.624V46.68H104.976V43.56H102.832V41.96H104.976V36.264C104.176 39.416 102.864 42.008 101.072 44.056L100.208 42.616C101.808 40.872 102.976 38.648 103.728 35.96H101.024V34.36ZM119.456 46.616H117.632L117.248 44.984C117.808 45.048 118.352 45.096 118.88 45.096C119.184 45.096 119.344 44.92 119.344 44.584V41.192C117.84 41.288 116.224 41.384 114.464 41.464L114 40.008C114.528 39.96 115.008 39.864 115.44 39.704C116.544 39.224 117.776 38.504 119.12 37.528C117.872 37.624 116.544 37.704 115.168 37.784L114.832 36.328C115.232 36.28 115.6 36.184 115.952 36.024C116.512 35.752 117.2 35.16 118.032 34.232C116.784 34.264 115.504 34.296 114.16 34.296L113.68 32.856C118.256 32.856 122.144 32.552 125.344 31.96L126.16 33.352C124.448 33.704 122.432 33.96 120.096 34.12C119.328 35.016 118.512 35.784 117.664 36.392C118.72 36.328 119.792 36.248 120.848 36.168C121.504 35.624 122.176 35.032 122.88 34.392L124.416 35.144C121.936 37.272 119.776 38.872 117.952 39.928C120.032 39.784 121.872 39.624 123.44 39.432C123.104 38.984 122.752 38.536 122.4 38.088L123.632 37.32C124.96 38.872 125.984 40.232 126.688 41.4L125.36 42.312C125.072 41.8 124.736 41.288 124.384 40.76C123.36 40.872 122.24 40.968 121.024 41.064V45C121.024 46.072 120.496 46.616 119.456 46.616ZM123.168 41.736C124.736 42.888 126.064 44.024 127.136 45.16L125.952 46.344C125.04 45.256 123.744 44.072 122.064 42.808L123.168 41.736ZM116.656 41.848L117.824 42.888C116.752 44.184 115.424 45.32 113.824 46.28L112.784 44.92C114.32 44.04 115.6 43.016 116.656 41.848Z" fill="#262626"/>
<path d="M38.816 142.008V143.672C38.144 143.96 37.472 144.248 36.784 144.504V148.888C36.784 149.976 36.224 150.52 35.104 150.52H33.456L33.072 148.904C33.584 148.968 34.08 149 34.528 149C34.896 149 35.088 148.808 35.088 148.456V145.096C34.368 145.32 33.648 145.544 32.912 145.752L32.496 144.152C33.36 143.976 34.224 143.752 35.088 143.496V140.232H32.752V138.616H35.088V135.928H36.784V138.616H38.688V140.232H36.784V142.904C37.456 142.632 38.144 142.328 38.816 142.008ZM39.024 136.92H47.216V138.552H44.8V148.776C44.8 149.912 44.256 150.488 43.2 150.488H40.496L40.128 148.872C40.992 148.936 41.824 148.968 42.608 148.968C42.928 148.968 43.104 148.76 43.104 148.344V138.552H39.024V136.92ZM50.224 135.912C51.28 136.776 52.192 137.656 52.928 138.52L51.76 139.672C51.136 138.84 50.24 137.944 49.088 136.984L50.224 135.912ZM59.344 150.408C58.464 150.408 57.504 150.392 56.48 150.376C55.44 150.36 54.592 150.264 53.92 150.104C53.28 149.912 52.72 149.544 52.24 149C52.016 148.728 51.824 148.6 51.648 148.6C51.328 148.6 50.784 149.32 49.984 150.76L48.752 149.608C49.552 148.328 50.256 147.512 50.896 147.16V142.776H48.784V141.24H52.448V147.32L52.624 147.496C52.992 147.912 53.36 148.232 53.728 148.44C54.208 148.68 54.912 148.808 55.856 148.84C56.784 148.856 57.856 148.872 59.104 148.872C59.904 148.872 60.704 148.856 61.536 148.856C62.352 148.824 62.976 148.792 63.424 148.76L63.008 150.408H59.344ZM55.616 139.16C55.36 139.672 55.072 140.168 54.784 140.632L53.424 139.768C54.176 138.68 54.704 137.496 55.024 136.248L56.544 136.584C56.448 136.936 56.336 137.288 56.224 137.624H57.664V135.88H59.248V137.624H62.352V139.16H59.248V140.728H63.184V142.248H53.264V140.728H57.664V139.16H55.616ZM54.528 143.144H62.048V147.976H54.528V143.144ZM60.448 146.424V144.68H56.128V146.424H60.448ZM66.784 146.584C67.488 147.064 68.128 147.624 68.736 148.248C69.248 148.776 69.744 149.352 70.192 149.976L69.072 150.904C68.64 150.296 68.176 149.72 67.664 149.176C67.088 148.568 66.48 148.008 65.808 147.48L66.784 146.584ZM86.304 147.144V148.744C84.736 149.32 82.944 149.8 80.944 150.168L80.72 148.504C82.848 148.168 84.704 147.72 86.304 147.144ZM83.088 135.768L84.688 136.408C84.016 138.264 83.312 139.768 82.608 140.952L83.952 140.76C84.208 140.184 84.496 139.576 84.784 138.92L86.24 139.48C85.088 141.928 84.096 143.736 83.296 144.92C84.16 144.68 85.056 144.36 85.952 143.96V145.496C84.32 146.168 82.784 146.616 81.344 146.84L80.912 145.336C81.2 145.208 81.456 145.048 81.664 144.856C82.08 144.376 82.592 143.512 83.216 142.28C82.528 142.376 81.808 142.488 81.072 142.6L80.672 141.08C80.928 140.968 81.152 140.76 81.36 140.472C82.016 139.048 82.592 137.48 83.088 135.768ZM88.864 143.208V144.84H91.216V143.208H88.864ZM88.864 146.36V148.264H91.216V146.36H88.864ZM88.864 149.816V150.632H87.264V141.864C86.896 142.44 86.512 142.984 86.112 143.512L85.6 141.816C86.784 140.024 87.616 138.056 88.096 135.912L89.68 136.232C89.488 136.984 89.248 137.72 88.992 138.424H91.28C91.04 137.688 90.768 136.952 90.448 136.248L92.064 135.816C92.4 136.76 92.672 137.624 92.88 138.424H95.12V139.992H92.816V141.672H94.848V143.208H92.816V144.84H94.848V146.36H92.816V148.264H95.44V149.816H88.864ZM91.216 139.992H88.864V141.672H91.216V139.992ZM98.688 150.52H97.088L96.72 148.904C97.2 148.968 97.664 149 98.112 149C98.464 149 98.64 148.808 98.64 148.456V145.256C98.064 145.448 97.472 145.64 96.896 145.8L96.48 144.12C97.216 143.976 97.936 143.8 98.64 143.576V140.36H96.8V138.744H98.64V135.912H100.32V138.744H101.888V140.36H100.32V142.984C100.896 142.76 101.456 142.504 102 142.248V143.912C101.456 144.168 100.896 144.408 100.32 144.632V148.888C100.32 149.976 99.776 150.52 98.688 150.52ZM109.408 139.24H104.288V141.768H109.408V139.24ZM104.272 143.368C104.208 146.2 103.536 148.648 102.24 150.696L100.976 149.56C102.064 147.864 102.624 145.672 102.64 142.984V137.656H105.984C105.792 137.08 105.568 136.552 105.312 136.04L107.088 135.752C107.296 136.328 107.488 136.952 107.68 137.656H111.024V143.368H104.272ZM126.816 136.776V149.992H125.184V148.84H121.904V150.184H120.288V136.776H126.816ZM121.904 147.272H125.184V138.328H121.904V147.272ZM113.072 140.088H115.696V138.312C114.992 138.424 114.272 138.504 113.568 138.552L113.024 137.064C115.52 136.856 117.52 136.472 118.992 135.912L119.776 137.288C118.96 137.576 118.128 137.832 117.296 138.024V140.088H119.856V141.64H117.296V142.216C118.192 142.968 119.088 143.832 120 144.792L119.024 146.248C118.352 145.256 117.776 144.456 117.296 143.848V150.488H115.696V144.264C115.056 145.544 114.272 146.712 113.328 147.784L112.608 145.944C114 144.696 115.024 143.288 115.696 141.72V141.64H113.072V140.088ZM133.472 137.32H137.408V135.864H139.088V137.32H143.344V138.904H139.088V140.056H142.752V144.92H139.008C138.88 146.168 138.656 147.16 138.304 147.896C139.792 148.648 141.504 149.08 143.424 149.176L143.024 150.776C140.88 150.632 138.992 150.104 137.36 149.208C136.48 150.008 135.136 150.52 133.344 150.76L132.624 149.24C134.048 149.128 135.136 148.792 135.872 148.232C135.024 147.592 134.256 146.856 133.584 146.024L134.864 145.144C135.456 145.864 136.112 146.488 136.832 147C137.072 146.456 137.232 145.752 137.328 144.92H133.888V140.056H137.408V138.904H133.472V137.32ZM141.184 143.432V141.544H139.088V143.432H141.184ZM137.408 143.432V141.544H135.456V143.432H137.408ZM130.256 142.44C129.856 142.952 129.44 143.432 128.992 143.912L128.448 142.136C129.984 140.312 131.12 138.184 131.856 135.72L133.44 136.456C133.056 137.672 132.56 138.824 131.936 139.944V150.696H130.256V142.44ZM147.696 141.768V144.072H151.216V141.768H147.696ZM147.616 145.608C147.408 147.592 146.816 149.256 145.84 150.568L144.56 149.416C145.504 148.072 145.984 146.36 146.016 144.28V136.36H158.416V148.44C158.416 149.672 157.776 150.296 156.512 150.296H154.672L154.224 148.664C154.864 148.728 155.44 148.76 155.984 148.76C156.464 148.76 156.72 148.44 156.72 147.832V145.608H152.912V150.12H151.216V145.608H147.616ZM156.72 144.072V141.768H152.912V144.072H156.72ZM156.72 140.232V137.992H152.912V140.232H156.72ZM151.216 137.992H147.696V140.232H151.216V137.992ZM162.752 136.072C163.776 136.84 164.64 137.608 165.344 138.376L164.208 139.528C163.584 138.792 162.72 137.992 161.616 137.16L162.752 136.072ZM160.624 140.616H164.32V147.256C164.784 146.84 165.28 146.392 165.808 145.896L166.272 147.656C165.216 148.616 164.096 149.464 162.912 150.232L162.272 148.728C162.544 148.488 162.688 148.184 162.688 147.832V142.216H160.624V140.616ZM166.352 142.536H174.16V144.056C173.712 145.432 172.976 146.632 171.952 147.64C172.944 148.28 174.144 148.84 175.568 149.336L174.672 150.776C173.104 150.136 171.776 149.432 170.72 148.648C169.472 149.528 167.952 150.232 166.128 150.76L165.2 149.352C166.848 148.872 168.24 148.264 169.392 147.528C168.368 146.504 167.648 145.384 167.264 144.136H166.352V142.536ZM168.832 144.136C169.184 145.048 169.76 145.88 170.592 146.616C171.408 145.88 172.032 145.064 172.48 144.136H168.832ZM167.44 136.344H173.2V139.656C173.2 140.008 173.392 140.2 173.792 140.2H175.168V141.72H173.344C172.144 141.72 171.552 141.16 171.552 140.04V137.912H169.088V138.344C169.088 140.008 168.224 141.304 166.528 142.2L165.408 140.92C166.752 140.36 167.44 139.56 167.44 138.52V136.344ZM181.664 140.472H185.792V135.832H187.52V140.472H191.44V142.136H187.52V150.712H185.792V142.136H181.664V140.472ZM178.848 135.96C179.856 136.744 180.72 137.528 181.44 138.296L180.288 139.464C179.68 138.728 178.8 137.944 177.664 137.112L178.848 135.96ZM176.624 140.584H180.432V147.272C180.896 146.872 181.392 146.424 181.92 145.928L182.352 147.64C181.312 148.6 180.208 149.464 179.024 150.232L178.384 148.728C178.672 148.488 178.816 148.2 178.816 147.864V142.184H176.624V140.584ZM194.32 142.728C193.92 143.256 193.504 143.768 193.056 144.28L192.544 142.616C194.08 140.664 195.232 138.392 195.968 135.768L197.472 136.472C197.088 137.752 196.576 138.968 195.968 140.136V150.68H194.32V142.728ZM197.024 138.36H200.976V135.832H202.624V138.36H206.8V139.96H203.856C204.56 142.392 205.76 144.568 207.44 146.488L206.352 147.864C204.592 145.592 203.344 143.048 202.624 140.248V145.96H204.832V147.56H202.624V150.68H200.976V147.56H198.832V145.96H200.976V140.264C200.176 143.416 198.864 146.008 197.072 148.056L196.208 146.616C197.808 144.872 198.976 142.648 199.728 139.96H197.024V138.36ZM215.456 150.616H213.632L213.248 148.984C213.808 149.048 214.352 149.096 214.88 149.096C215.184 149.096 215.344 148.92 215.344 148.584V145.192C213.84 145.288 212.224 145.384 210.464 145.464L210 144.008C210.528 143.96 211.008 143.864 211.44 143.704C212.544 143.224 213.776 142.504 215.12 141.528C213.872 141.624 212.544 141.704 211.168 141.784L210.832 140.328C211.232 140.28 211.6 140.184 211.952 140.024C212.512 139.752 213.2 139.16 214.032 138.232C212.784 138.264 211.504 138.296 210.16 138.296L209.68 136.856C214.256 136.856 218.144 136.552 221.344 135.96L222.16 137.352C220.448 137.704 218.432 137.96 216.096 138.12C215.328 139.016 214.512 139.784 213.664 140.392C214.72 140.328 215.792 140.248 216.848 140.168C217.504 139.624 218.176 139.032 218.88 138.392L220.416 139.144C217.936 141.272 215.776 142.872 213.952 143.928C216.032 143.784 217.872 143.624 219.44 143.432C219.104 142.984 218.752 142.536 218.4 142.088L219.632 141.32C220.96 142.872 221.984 144.232 222.688 145.4L221.36 146.312C221.072 145.8 220.736 145.288 220.384 144.76C219.36 144.872 218.24 144.968 217.024 145.064V149C217.024 150.072 216.496 150.616 215.456 150.616ZM219.168 145.736C220.736 146.888 222.064 148.024 223.136 149.16L221.952 150.344C221.04 149.256 219.744 148.072 218.064 146.808L219.168 145.736ZM212.656 145.848L213.824 146.888C212.752 148.184 211.424 149.32 209.824 150.28L208.784 148.92C210.32 148.04 211.6 147.016 212.656 145.848Z" fill="#262626"/>
</svg>
