<svg width="462" height="212" viewBox="0 0 462 212" fill="none" xmlns="http://www.w3.org/2000/svg">
<rect width="462" height="212" fill="white"/>
<rect x="24.5" y="14.5" width="23" height="23" fill="#FAFAFA" stroke="#BBF7B0"/>
<rect x="50.5" y="14.5" width="23" height="23" fill="#FAFAFA" stroke="#BBF7B0"/>
<rect x="24" y="46" width="24" height="24" fill="#F5F5F5"/>
<rect x="24" y="78" width="24" height="24" fill="#F5F5F5"/>
<rect x="24" y="110" width="24" height="24" fill="#F5F5F5"/>
<rect x="24" y="142" width="24" height="24" fill="#F5F5F5"/>
<rect x="24" y="174" width="24" height="24" fill="#F5F5F5"/>
<rect x="180" y="14" width="24" height="24" fill="#F5F5F5"/>
<rect x="180" y="46" width="24" height="24" fill="#F5F5F5"/>
<rect x="180" y="78" width="24" height="24" fill="#FFEDD5"/>
<rect x="180" y="110" width="24" height="24" fill="#F5F5F5"/>
<rect x="180" y="142" width="24" height="24" fill="#F5F5F5"/>
<rect x="180" y="174" width="24" height="24" fill="#F5F5F5"/>
<rect x="336" y="14" width="24" height="24" fill="#F5F5F5"/>
<rect x="336" y="46" width="24" height="24" fill="#F5F5F5"/>
<rect x="336" y="78" width="24" height="24" fill="#F5F5F5"/>
<rect x="336" y="110" width="24" height="24" fill="#F5F5F5"/>
<rect x="336" y="142" width="24" height="24" fill="#F5F5F5"/>
<rect x="336" y="174" width="24" height="24" fill="#FAFAFA"/>
<rect x="76" y="14" width="24" height="24" fill="#F5F5F5"/>
<rect x="76" y="46" width="24" height="24" fill="#F5F5F5"/>
<rect x="76" y="78" width="24" height="24" fill="#F5F5F5"/>
<rect x="76" y="110" width="24" height="24" fill="#F5F5F5"/>
<rect x="76" y="142" width="24" height="24" fill="#F5F5F5"/>
<rect x="76" y="174" width="24" height="24" fill="#F5F5F5"/>
<rect x="232" y="14" width="24" height="24" fill="#F5F5F5"/>
<rect x="232" y="46" width="24" height="24" fill="#F5F5F5"/>
<rect x="232" y="78" width="24" height="24" fill="#F5F5F5"/>
<rect x="232" y="110" width="24" height="24" fill="#F5F5F5"/>
<rect x="232" y="142" width="24" height="24" fill="#F5F5F5"/>
<rect x="232" y="174" width="24" height="24" fill="#F5F5F5"/>
<rect x="388" y="14" width="24" height="24" fill="#F5F5F5"/>
<rect x="388" y="46" width="24" height="24" fill="#F5F5F5"/>
<rect x="388" y="78" width="24" height="24" fill="#F5F5F5"/>
<rect x="388" y="110" width="24" height="24" fill="#F5F5F5"/>
<rect x="388" y="142" width="24" height="24" fill="#F5F5F5"/>
<rect x="388" y="174" width="24" height="24" fill="#FAFAFA"/>
<rect x="128" y="14" width="24" height="24" fill="#F5F5F5"/>
<rect x="128" y="46" width="24" height="24" fill="#F5F5F5"/>
<rect x="128" y="78" width="24" height="24" fill="#F5F5F5"/>
<rect x="128" y="110" width="24" height="24" fill="#F5F5F5"/>
<rect x="128" y="142" width="24" height="24" fill="#FFEDD5"/>
<rect x="128" y="174" width="24" height="24" fill="#F5F5F5"/>
<rect x="284" y="14" width="24" height="24" fill="#F5F5F5"/>
<rect x="284" y="46" width="24" height="24" fill="#F5F5F5"/>
<rect x="284" y="78" width="24" height="24" fill="#F5F5F5"/>
<rect x="284" y="110" width="24" height="24" fill="#F5F5F5"/>
<rect x="284" y="142" width="24" height="24" fill="#F5F5F5"/>
<rect x="284" y="174" width="24" height="24" fill="#FAFAFA"/>
<rect x="50" y="46" width="24" height="24" fill="#F5F5F5"/>
<rect x="50" y="78" width="24" height="24" fill="#F5F5F5"/>
<rect x="50" y="110" width="24" height="24" fill="#F5F5F5"/>
<rect x="50" y="142" width="24" height="24" fill="#F5F5F5"/>
<rect x="50" y="174" width="24" height="24" fill="#F5F5F5"/>
<rect x="206" y="14" width="24" height="24" fill="#F5F5F5"/>
<rect x="206" y="46" width="24" height="24" fill="#F5F5F5"/>
<rect x="206" y="78" width="24" height="24" fill="#F5F5F5"/>
<rect x="206" y="110" width="24" height="24" fill="#F5F5F5"/>
<rect x="206" y="142" width="24" height="24" fill="#F5F5F5"/>
<rect x="206" y="174" width="24" height="24" fill="#F5F5F5"/>
<rect x="362" y="14" width="24" height="24" fill="#F5F5F5"/>
<rect x="362" y="46" width="24" height="24" fill="#F5F5F5"/>
<rect x="362" y="78" width="24" height="24" fill="#F5F5F5"/>
<rect x="362" y="110" width="24" height="24" fill="#F5F5F5"/>
<rect x="362" y="142" width="24" height="24" fill="#F5F5F5"/>
<rect x="362" y="174" width="24" height="24" fill="#FAFAFA"/>
<rect x="102" y="14" width="24" height="24" fill="#F5F5F5"/>
<rect x="102" y="46" width="24" height="24" fill="#FFEDD5"/>
<rect x="102" y="78" width="24" height="24" fill="#F5F5F5"/>
<rect x="102" y="110" width="24" height="24" fill="#F5F5F5"/>
<rect x="102" y="142" width="24" height="24" fill="#F5F5F5"/>
<rect x="102" y="174" width="24" height="24" fill="#F5F5F5"/>
<rect x="258" y="14" width="24" height="24" fill="#F5F5F5"/>
<rect x="258" y="46" width="24" height="24" fill="#F5F5F5"/>
<rect x="258" y="78" width="24" height="24" fill="#FFEDD5"/>
<rect x="258" y="110" width="24" height="24" fill="#F5F5F5"/>
<rect x="258" y="142" width="24" height="24" fill="#F5F5F5"/>
<rect x="258" y="174" width="24" height="24" fill="#F5F5F5"/>
<rect x="414" y="14" width="24" height="24" fill="#F5F5F5"/>
<rect x="414" y="46" width="24" height="24" fill="#F5F5F5"/>
<rect x="414" y="78" width="24" height="24" fill="#F5F5F5"/>
<rect x="414" y="110" width="24" height="24" fill="#F5F5F5"/>
<rect x="414" y="142" width="24" height="24" fill="#F5F5F5"/>
<rect x="414" y="174" width="24" height="24" fill="#FAFAFA"/>
<rect x="154" y="14" width="24" height="24" fill="#F5F5F5"/>
<rect x="154" y="46" width="24" height="24" fill="#F5F5F5"/>
<rect x="154" y="78" width="24" height="24" fill="#F5F5F5"/>
<rect x="154" y="110" width="24" height="24" fill="#F5F5F5"/>
<rect x="154" y="142" width="24" height="24" fill="#FFEDD5"/>
<rect x="154" y="174" width="24" height="24" fill="#F5F5F5"/>
<rect x="310" y="14" width="24" height="24" fill="#F5F5F5"/>
<rect x="310" y="46" width="24" height="24" fill="#F5F5F5"/>
<rect x="310" y="78" width="24" height="24" fill="#F5F5F5"/>
<rect x="310" y="110" width="24" height="24" fill="#FFEDD5"/>
<rect x="310" y="142" width="24" height="24" fill="#F5F5F5"/>
<rect x="310" y="174" width="24" height="24" fill="#FAFAFA"/>
<path d="M125.76 58C125.76 61.264 124.608 64.024 122.304 66.304C120 68.608 117.24 69.76 114 69.76C110.736 69.76 107.976 68.608 105.696 66.304C103.392 64.024 102.24 61.264 102.24 58C102.24 54.76 103.392 52 105.696 49.696C107.976 47.392 110.736 46.24 114 46.24C117.24 46.24 120 47.392 122.304 49.696C124.608 52 125.76 54.76 125.76 58ZM124.824 58C124.824 55.024 123.768 52.456 121.656 50.344C119.544 48.232 116.976 47.176 114 47.176C111 47.176 108.456 48.232 106.344 50.344C104.232 52.456 103.176 55.024 103.176 58C103.176 61 104.232 63.544 106.344 65.656C108.456 67.768 111 68.824 114 68.824C116.976 68.824 119.544 67.768 121.656 65.656C123.768 63.544 124.824 61 124.824 58ZM118.032 65.8H110.448V65.2H111.768C112.872 65.2 113.424 64.648 113.424 63.496V53.752C113.424 53.272 113.328 52.912 113.136 52.72C112.944 52.528 112.608 52.408 112.128 52.408H110.52V51.832C111.864 51.832 113.112 51.304 114.312 50.2H114.984V63.496C114.984 64.648 115.512 65.2 116.616 65.2H118.032V65.8Z" fill="black"/>
<circle cx="327.5" cy="129.5" r="2.5" stroke="#262626" stroke-width="1.4"/>
<path d="M317.97 110.29C318.542 110.29 319.036 110.524 319.4 110.992C319.738 111.46 319.92 112.058 319.92 112.838C319.92 113.982 319.582 114.996 318.906 115.854C318.23 116.686 317.32 117.258 316.228 117.57V116.27C316.904 116.036 317.45 115.672 317.866 115.152C318.256 114.606 318.438 114.034 318.438 113.41C318.334 113.462 318.126 113.488 317.866 113.488C317.424 113.488 317.06 113.332 316.748 113.02C316.436 112.708 316.28 112.344 316.28 111.902C316.28 111.408 316.436 111.018 316.774 110.732C317.06 110.42 317.45 110.29 317.97 110.29ZM312.848 110.29C313.42 110.29 313.888 110.524 314.252 110.992C314.59 111.46 314.772 112.058 314.772 112.838C314.772 113.982 314.434 114.996 313.758 115.854C313.082 116.686 312.172 117.258 311.08 117.57V116.27C311.756 116.036 312.276 115.672 312.692 115.152C313.108 114.606 313.29 114.034 313.29 113.41C313.186 113.462 312.978 113.488 312.718 113.488C312.276 113.488 311.912 113.332 311.626 113.02C311.314 112.708 311.158 112.344 311.158 111.902C311.158 111.408 311.288 111.018 311.6 110.732C311.912 110.42 312.328 110.29 312.848 110.29Z" fill="black"/>
<path d="M195.18 79H203.5V80.742H197.078V94.938H195.18V79Z" fill="black"/>
<path d="M264.922 85.0601H266.82V100.998H258.5V99.2561H264.922V85.0601Z" fill="black"/>
<path d="M135.4 145.436H138.052L144.968 161.27H145.046L151.936 145.436H154.588V164H152.456V149.232H152.378L145.956 164H144.032L137.61 149.232H137.532V164H135.4V145.436Z" fill="black"/>
<path d="M164.074 150.194C166.076 150.194 167.688 150.87 168.884 152.274C170.028 153.6 170.6 155.264 170.6 157.292C170.6 159.294 170.028 160.958 168.91 162.258C167.688 163.662 166.076 164.364 164.074 164.364C162.046 164.364 160.46 163.662 159.264 162.258C158.12 160.958 157.548 159.294 157.548 157.292C157.548 155.264 158.12 153.6 159.264 152.274C160.46 150.87 162.046 150.194 164.074 150.194ZM164.074 151.936C162.644 151.936 161.526 152.482 160.746 153.574C160.018 154.562 159.68 155.784 159.68 157.292C159.68 158.774 160.018 159.996 160.746 160.984C161.526 162.076 162.644 162.622 164.074 162.622C165.478 162.622 166.596 162.076 167.428 160.984C168.13 159.996 168.494 158.748 168.494 157.292C168.494 155.784 168.13 154.562 167.428 153.574C166.596 152.482 165.478 151.936 164.074 151.936Z" fill="black"/>
</svg>
