<svg width="480" height="320" viewBox="0 0 480 320" fill="none" xmlns="http://www.w3.org/2000/svg">
<rect width="480" height="320" fill="white"/>
<path d="M179.5 99.5V87.5H440.5V99.5" stroke="#D1FAE5" stroke-width="5"/>
<path d="M150.5 215.5V227.5H345.5V215.5" stroke="#FEF3C7" stroke-width="5"/>
<path d="M38.5 255.5V267.5H440.5V255.5" stroke="#DBEAFE" stroke-width="5"/>
<path d="M179.5 175.5V187.5H345.5V175.5" stroke="#FFE4E6" stroke-width="5"/>
<mask id="path-5-outside-1_139_13" maskUnits="userSpaceOnUse" x="37.1602" y="125.36" width="405" height="24" fill="black">
<rect fill="white" x="37.1602" y="125.36" width="405" height="24"/>
<path d="M69.1042 131.576V132.312H64.9762L59.6322 143.32H59.4402L53.5202 133.048L47.6322 143.32H47.4402L42.1282 132.312H38.1602V131.576H46.8962V132.312H42.9922L47.6322 142.072L53.4882 131.832H53.6802L59.5682 142.136L64.1762 132.312H60.3042V131.576H69.1042Z"/>
<path d="M94.1469 141.784L94.5629 142.392C93.8269 142.936 92.9309 143.32 91.9389 143.32C90.4989 143.32 89.4109 142.392 89.1869 140.728C85.7629 142.424 81.8269 143.32 78.4029 143.32C74.3709 143.32 72.0989 142.104 72.0989 139.992C72.0989 137.624 74.9789 136.312 79.7149 136.312C83.3949 136.312 86.4989 136.792 89.1229 137.336V136.696C89.1229 134.008 87.1069 132.024 82.4989 132.024C79.1709 132.024 76.0989 132.824 72.7709 133.848L72.5789 133.08C76.0669 131.928 79.2989 131.256 82.4989 131.256C87.5229 131.256 89.9229 133.496 89.9229 136.696V140.024C89.9229 141.752 90.9149 142.552 91.9709 142.552C92.8669 142.552 93.5389 142.296 94.1469 141.784ZM72.8989 139.928C72.8989 141.624 74.8829 142.552 78.4029 142.552C81.7309 142.552 85.5389 141.656 89.1229 140.024V138.04C86.4669 137.496 83.2029 137.048 79.7149 137.048C75.4909 137.048 72.8989 138.136 72.8989 139.928Z"/>
<path d="M119.673 142.264H125.177V143H113.753V142.264H118.873V138.68C118.873 135.448 117.817 132.024 113.113 132.024C109.049 132.024 105.337 134.936 103.193 136.664V142.264H108.313V143H96.5689V142.264H102.393V132.312H96.5689V131.576H103.193V135.896C105.337 134.168 109.049 131.288 113.113 131.288C118.137 131.288 119.673 134.776 119.673 138.68V142.264Z"/>
<path d="M143.041 141.112C145.473 141.112 147.393 142.008 147.393 143.96C147.393 146.872 142.657 148.28 136.481 148.28C130.145 148.28 127.521 146.68 127.521 144.568C127.521 143.448 128.385 142.584 129.153 142.136C128.097 141.56 127.777 140.728 127.777 140.088C127.777 138.712 129.025 137.816 130.049 137.4C129.537 136.824 129.249 136.152 129.249 135.352C129.249 132.536 132.993 131.256 137.313 131.256C139.553 131.256 141.633 131.608 143.137 132.312C143.649 130.072 145.345 128.824 147.329 128.728V129.528C145.633 129.624 144.225 130.392 143.585 132.536C144.737 133.208 145.441 134.136 145.441 135.352C145.441 138.232 141.665 139.544 137.313 139.544C134.497 139.576 131.905 139 130.465 137.784C129.505 138.232 128.513 138.904 128.513 139.992C128.513 140.952 129.569 142.168 132.929 142.168C135.361 142.168 140.641 141.112 143.041 141.112ZM137.313 132.024C133.377 132.024 130.049 133.08 130.049 135.352C130.049 137.624 133.377 138.776 137.313 138.776C141.313 138.776 144.641 137.624 144.641 135.352C144.641 133.08 141.313 132.024 137.313 132.024ZM136.449 147.544C142.177 147.544 146.593 146.424 146.593 143.96C146.593 142.456 145.121 141.848 143.041 141.848C140.481 141.848 135.393 142.84 132.833 142.84C131.489 142.84 130.497 142.68 129.761 142.392C128.929 142.84 128.321 143.608 128.321 144.472C128.321 146.2 130.593 147.544 136.449 147.544Z"/>
<path d="M164.733 126.808C172.317 126.808 177.181 131.096 177.181 136.568C177.181 140.152 174.877 142.328 172.829 142.328C171.229 142.328 170.269 141.528 169.853 140.408C167.357 141.656 164.701 142.328 162.141 142.328C159.357 142.328 157.341 141.4 157.341 139.608C157.341 137.56 159.741 136.728 163.261 136.728C165.533 136.728 167.709 137.048 169.661 137.336V136.632C169.661 134.776 168.157 133.304 164.957 133.304C162.557 133.304 160.253 133.88 157.917 134.648V133.848C160.221 133.112 162.589 132.568 164.957 132.568C168.701 132.568 170.365 134.2 170.365 136.632V139.128C170.365 140.44 171.165 141.592 172.829 141.592C174.653 141.592 176.381 139.64 176.381 136.568C176.381 131.736 171.933 127.576 164.733 127.576C157.277 127.576 152.189 132.12 152.189 137.72C152.189 143.864 157.149 146.648 162.237 146.648C166.365 146.648 168.733 145.464 170.269 144.6L170.589 145.272C169.053 146.168 166.461 147.448 162.237 147.448C156.829 147.448 151.389 144.28 151.389 137.72C151.389 131.576 156.925 126.808 164.733 126.808ZM162.141 141.592C164.605 141.592 167.165 140.92 169.693 139.768C169.661 139.544 169.661 139.352 169.661 139.128V138.104C167.709 137.816 165.501 137.432 163.165 137.432C160.509 137.432 158.109 137.944 158.109 139.608C158.109 140.952 160.029 141.592 162.141 141.592Z"/>
<path d="M210.823 131.576V132.312H206.695L201.351 143.32H201.159L195.239 133.048L189.351 143.32H189.159L183.847 132.312H179.879V131.576H188.615V132.312H184.711L189.351 142.072L195.207 131.832H195.399L201.287 142.136L205.895 132.312H202.023V131.576H210.823Z"/>
<path d="M231.898 140.152L232.25 140.792C229.818 142.296 227.13 143.352 222.778 143.352C217.594 143.352 213.498 141.176 213.498 137.528C213.498 133.496 218.618 131.288 223.738 131.288C228.57 131.288 231.802 132.632 231.802 135C231.802 137.496 228.506 138.52 224.186 138.52C220.762 138.52 217.658 137.912 214.362 136.792C214.33 137.048 214.298 137.272 214.298 137.528C214.298 140.536 217.914 142.552 222.778 142.584C226.746 142.648 229.53 141.624 231.898 140.152ZM223.738 132.024C219.642 132.024 215.578 133.528 214.554 136.216C217.786 137.24 220.858 137.752 224.186 137.752C228.026 137.752 231.002 137.048 231.002 135C231.002 133.112 228.218 132.024 223.738 132.024Z"/>
<path d="M259.584 141.784L260 142.392C259.264 142.936 258.368 143.32 257.376 143.32C255.936 143.32 254.848 142.392 254.624 140.728C251.2 142.424 247.264 143.32 243.84 143.32C239.808 143.32 237.536 142.104 237.536 139.992C237.536 137.624 240.416 136.312 245.152 136.312C248.832 136.312 251.936 136.792 254.56 137.336V136.696C254.56 134.008 252.544 132.024 247.936 132.024C244.608 132.024 241.536 132.824 238.208 133.848L238.016 133.08C241.504 131.928 244.736 131.256 247.936 131.256C252.96 131.256 255.36 133.496 255.36 136.696V140.024C255.36 141.752 256.352 142.552 257.408 142.552C258.304 142.552 258.976 142.296 259.584 141.784ZM238.336 139.928C238.336 141.624 240.32 142.552 243.84 142.552C247.168 142.552 250.976 141.656 254.56 140.024V138.04C251.904 137.496 248.64 137.048 245.152 137.048C240.928 137.048 238.336 138.136 238.336 139.928Z"/>
<path d="M285.826 139.672L286.498 139.832C286.05 142.008 284.386 143.64 281.826 143.64C279.074 143.64 276.866 141.464 274.914 138.712C271.97 138.712 269.122 138.264 267.49 137.976V142.264H273.346V143H260.898V142.264H266.69V127.128H260.898V126.36H267.49V135.32C271.106 132.92 274.946 131.288 278.562 131.288C282.018 131.288 284.13 132.504 284.13 134.552C284.13 137.208 280.93 138.584 275.746 138.712C277.826 141.336 279.394 142.872 281.858 142.872C283.746 142.872 285.378 141.784 285.826 139.672ZM267.49 135.992V137.4C269.122 137.592 272.386 137.944 275.042 137.944C279.906 137.944 283.33 136.792 283.33 134.616C283.33 132.856 281.442 132.024 278.402 132.024C274.85 132.024 271.074 133.656 267.49 135.992Z"/>
<path d="M301.174 143.352C295.478 143.352 290.966 141.112 290.966 137.272C290.966 133.368 295.478 131.32 301.174 131.288C306.902 131.288 311.414 133.368 311.414 137.272C311.414 141.112 306.902 143.352 301.174 143.352ZM301.174 142.584C306.55 142.584 310.614 140.6 310.614 137.272C310.614 133.912 306.55 132.056 301.174 132.056C295.83 132.088 291.766 133.912 291.766 137.272C291.766 140.6 295.83 142.584 301.174 142.584Z"/>
<path d="M345.073 131.576V132.312H340.945L335.601 143.32H335.409L329.489 133.048L323.601 143.32H323.409L318.097 132.312H314.129V131.576H322.865V132.312H318.961L323.601 142.072L329.457 131.832H329.649L335.537 142.136L340.145 132.312H336.273V131.576H345.073Z"/>
<path d="M347.406 143.32C346.382 143.32 345.806 142.84 345.806 142.296C345.806 141.688 346.382 141.24 347.406 141.24C348.398 141.24 348.942 141.688 348.942 142.296C348.942 142.84 348.398 143.32 347.406 143.32Z"/>
<path d="M372.092 139.352L372.54 139.928C370.044 141.944 366.844 143.352 362.524 143.352C357.5 143.352 353.404 141.144 353.404 137.496C353.404 133.304 358.268 131.224 362.908 131.288C366.588 131.288 369.852 132.696 371.612 134.488V131.576H372.348V135.928L372.156 135.96C370.044 133.208 366.332 132.024 362.844 132.024C358.588 132.024 354.204 133.848 354.204 137.496C354.204 140.504 357.82 142.552 362.524 142.584C366.524 142.616 369.724 141.208 372.092 139.352Z"/>
<path d="M388.393 143.352C382.697 143.352 378.185 141.112 378.185 137.272C378.185 133.368 382.697 131.32 388.393 131.288C394.121 131.288 398.633 133.368 398.633 137.272C398.633 141.112 394.121 143.352 388.393 143.352ZM388.393 142.584C393.769 142.584 397.833 140.6 397.833 137.272C397.833 133.912 393.769 132.056 388.393 132.056C383.049 132.088 378.985 133.912 378.985 137.272C378.985 140.6 383.049 142.584 388.393 142.584Z"/>
<path d="M435.268 142.264H441.092V143H430.148V142.264H434.468V138.008C434.468 134.744 433.7 132.024 429.892 132.024C426.628 132.024 424.356 134.168 422.244 136.568C422.276 137.048 422.308 137.528 422.308 138.008V142.264H426.628V143H417.22V142.264H421.54V138.008C421.54 134.744 420.74 132.024 416.964 132.024C413.732 132.024 411.524 134.136 409.412 136.504V142.264H413.732V143H402.788V142.264H408.612V132.312H402.788V131.576H409.412V135.672C411.172 133.368 413.764 131.256 416.964 131.256C420.292 131.256 421.732 133.112 422.148 135.864C423.94 133.496 426.596 131.256 429.892 131.256C433.988 131.256 435.268 134.104 435.268 138.008V142.264Z"/>
</mask>
<path d="M69.1042 131.576V132.312H64.9762L59.6322 143.32H59.4402L53.5202 133.048L47.6322 143.32H47.4402L42.1282 132.312H38.1602V131.576H46.8962V132.312H42.9922L47.6322 142.072L53.4882 131.832H53.6802L59.5682 142.136L64.1762 132.312H60.3042V131.576H69.1042Z" fill="#262626"/>
<path d="M94.1469 141.784L94.5629 142.392C93.8269 142.936 92.9309 143.32 91.9389 143.32C90.4989 143.32 89.4109 142.392 89.1869 140.728C85.7629 142.424 81.8269 143.32 78.4029 143.32C74.3709 143.32 72.0989 142.104 72.0989 139.992C72.0989 137.624 74.9789 136.312 79.7149 136.312C83.3949 136.312 86.4989 136.792 89.1229 137.336V136.696C89.1229 134.008 87.1069 132.024 82.4989 132.024C79.1709 132.024 76.0989 132.824 72.7709 133.848L72.5789 133.08C76.0669 131.928 79.2989 131.256 82.4989 131.256C87.5229 131.256 89.9229 133.496 89.9229 136.696V140.024C89.9229 141.752 90.9149 142.552 91.9709 142.552C92.8669 142.552 93.5389 142.296 94.1469 141.784ZM72.8989 139.928C72.8989 141.624 74.8829 142.552 78.4029 142.552C81.7309 142.552 85.5389 141.656 89.1229 140.024V138.04C86.4669 137.496 83.2029 137.048 79.7149 137.048C75.4909 137.048 72.8989 138.136 72.8989 139.928Z" fill="#262626"/>
<path d="M119.673 142.264H125.177V143H113.753V142.264H118.873V138.68C118.873 135.448 117.817 132.024 113.113 132.024C109.049 132.024 105.337 134.936 103.193 136.664V142.264H108.313V143H96.5689V142.264H102.393V132.312H96.5689V131.576H103.193V135.896C105.337 134.168 109.049 131.288 113.113 131.288C118.137 131.288 119.673 134.776 119.673 138.68V142.264Z" fill="#262626"/>
<path d="M143.041 141.112C145.473 141.112 147.393 142.008 147.393 143.96C147.393 146.872 142.657 148.28 136.481 148.28C130.145 148.28 127.521 146.68 127.521 144.568C127.521 143.448 128.385 142.584 129.153 142.136C128.097 141.56 127.777 140.728 127.777 140.088C127.777 138.712 129.025 137.816 130.049 137.4C129.537 136.824 129.249 136.152 129.249 135.352C129.249 132.536 132.993 131.256 137.313 131.256C139.553 131.256 141.633 131.608 143.137 132.312C143.649 130.072 145.345 128.824 147.329 128.728V129.528C145.633 129.624 144.225 130.392 143.585 132.536C144.737 133.208 145.441 134.136 145.441 135.352C145.441 138.232 141.665 139.544 137.313 139.544C134.497 139.576 131.905 139 130.465 137.784C129.505 138.232 128.513 138.904 128.513 139.992C128.513 140.952 129.569 142.168 132.929 142.168C135.361 142.168 140.641 141.112 143.041 141.112ZM137.313 132.024C133.377 132.024 130.049 133.08 130.049 135.352C130.049 137.624 133.377 138.776 137.313 138.776C141.313 138.776 144.641 137.624 144.641 135.352C144.641 133.08 141.313 132.024 137.313 132.024ZM136.449 147.544C142.177 147.544 146.593 146.424 146.593 143.96C146.593 142.456 145.121 141.848 143.041 141.848C140.481 141.848 135.393 142.84 132.833 142.84C131.489 142.84 130.497 142.68 129.761 142.392C128.929 142.84 128.321 143.608 128.321 144.472C128.321 146.2 130.593 147.544 136.449 147.544Z" fill="#262626"/>
<path d="M164.733 126.808C172.317 126.808 177.181 131.096 177.181 136.568C177.181 140.152 174.877 142.328 172.829 142.328C171.229 142.328 170.269 141.528 169.853 140.408C167.357 141.656 164.701 142.328 162.141 142.328C159.357 142.328 157.341 141.4 157.341 139.608C157.341 137.56 159.741 136.728 163.261 136.728C165.533 136.728 167.709 137.048 169.661 137.336V136.632C169.661 134.776 168.157 133.304 164.957 133.304C162.557 133.304 160.253 133.88 157.917 134.648V133.848C160.221 133.112 162.589 132.568 164.957 132.568C168.701 132.568 170.365 134.2 170.365 136.632V139.128C170.365 140.44 171.165 141.592 172.829 141.592C174.653 141.592 176.381 139.64 176.381 136.568C176.381 131.736 171.933 127.576 164.733 127.576C157.277 127.576 152.189 132.12 152.189 137.72C152.189 143.864 157.149 146.648 162.237 146.648C166.365 146.648 168.733 145.464 170.269 144.6L170.589 145.272C169.053 146.168 166.461 147.448 162.237 147.448C156.829 147.448 151.389 144.28 151.389 137.72C151.389 131.576 156.925 126.808 164.733 126.808ZM162.141 141.592C164.605 141.592 167.165 140.92 169.693 139.768C169.661 139.544 169.661 139.352 169.661 139.128V138.104C167.709 137.816 165.501 137.432 163.165 137.432C160.509 137.432 158.109 137.944 158.109 139.608C158.109 140.952 160.029 141.592 162.141 141.592Z" fill="#262626"/>
<path d="M210.823 131.576V132.312H206.695L201.351 143.32H201.159L195.239 133.048L189.351 143.32H189.159L183.847 132.312H179.879V131.576H188.615V132.312H184.711L189.351 142.072L195.207 131.832H195.399L201.287 142.136L205.895 132.312H202.023V131.576H210.823Z" fill="#262626"/>
<path d="M231.898 140.152L232.25 140.792C229.818 142.296 227.13 143.352 222.778 143.352C217.594 143.352 213.498 141.176 213.498 137.528C213.498 133.496 218.618 131.288 223.738 131.288C228.57 131.288 231.802 132.632 231.802 135C231.802 137.496 228.506 138.52 224.186 138.52C220.762 138.52 217.658 137.912 214.362 136.792C214.33 137.048 214.298 137.272 214.298 137.528C214.298 140.536 217.914 142.552 222.778 142.584C226.746 142.648 229.53 141.624 231.898 140.152ZM223.738 132.024C219.642 132.024 215.578 133.528 214.554 136.216C217.786 137.24 220.858 137.752 224.186 137.752C228.026 137.752 231.002 137.048 231.002 135C231.002 133.112 228.218 132.024 223.738 132.024Z" fill="#262626"/>
<path d="M259.584 141.784L260 142.392C259.264 142.936 258.368 143.32 257.376 143.32C255.936 143.32 254.848 142.392 254.624 140.728C251.2 142.424 247.264 143.32 243.84 143.32C239.808 143.32 237.536 142.104 237.536 139.992C237.536 137.624 240.416 136.312 245.152 136.312C248.832 136.312 251.936 136.792 254.56 137.336V136.696C254.56 134.008 252.544 132.024 247.936 132.024C244.608 132.024 241.536 132.824 238.208 133.848L238.016 133.08C241.504 131.928 244.736 131.256 247.936 131.256C252.96 131.256 255.36 133.496 255.36 136.696V140.024C255.36 141.752 256.352 142.552 257.408 142.552C258.304 142.552 258.976 142.296 259.584 141.784ZM238.336 139.928C238.336 141.624 240.32 142.552 243.84 142.552C247.168 142.552 250.976 141.656 254.56 140.024V138.04C251.904 137.496 248.64 137.048 245.152 137.048C240.928 137.048 238.336 138.136 238.336 139.928Z" fill="#262626"/>
<path d="M285.826 139.672L286.498 139.832C286.05 142.008 284.386 143.64 281.826 143.64C279.074 143.64 276.866 141.464 274.914 138.712C271.97 138.712 269.122 138.264 267.49 137.976V142.264H273.346V143H260.898V142.264H266.69V127.128H260.898V126.36H267.49V135.32C271.106 132.92 274.946 131.288 278.562 131.288C282.018 131.288 284.13 132.504 284.13 134.552C284.13 137.208 280.93 138.584 275.746 138.712C277.826 141.336 279.394 142.872 281.858 142.872C283.746 142.872 285.378 141.784 285.826 139.672ZM267.49 135.992V137.4C269.122 137.592 272.386 137.944 275.042 137.944C279.906 137.944 283.33 136.792 283.33 134.616C283.33 132.856 281.442 132.024 278.402 132.024C274.85 132.024 271.074 133.656 267.49 135.992Z" fill="#262626"/>
<path d="M301.174 143.352C295.478 143.352 290.966 141.112 290.966 137.272C290.966 133.368 295.478 131.32 301.174 131.288C306.902 131.288 311.414 133.368 311.414 137.272C311.414 141.112 306.902 143.352 301.174 143.352ZM301.174 142.584C306.55 142.584 310.614 140.6 310.614 137.272C310.614 133.912 306.55 132.056 301.174 132.056C295.83 132.088 291.766 133.912 291.766 137.272C291.766 140.6 295.83 142.584 301.174 142.584Z" fill="#262626"/>
<path d="M345.073 131.576V132.312H340.945L335.601 143.32H335.409L329.489 133.048L323.601 143.32H323.409L318.097 132.312H314.129V131.576H322.865V132.312H318.961L323.601 142.072L329.457 131.832H329.649L335.537 142.136L340.145 132.312H336.273V131.576H345.073Z" fill="#262626"/>
<path d="M347.406 143.32C346.382 143.32 345.806 142.84 345.806 142.296C345.806 141.688 346.382 141.24 347.406 141.24C348.398 141.24 348.942 141.688 348.942 142.296C348.942 142.84 348.398 143.32 347.406 143.32Z" fill="#262626"/>
<path d="M372.092 139.352L372.54 139.928C370.044 141.944 366.844 143.352 362.524 143.352C357.5 143.352 353.404 141.144 353.404 137.496C353.404 133.304 358.268 131.224 362.908 131.288C366.588 131.288 369.852 132.696 371.612 134.488V131.576H372.348V135.928L372.156 135.96C370.044 133.208 366.332 132.024 362.844 132.024C358.588 132.024 354.204 133.848 354.204 137.496C354.204 140.504 357.82 142.552 362.524 142.584C366.524 142.616 369.724 141.208 372.092 139.352Z" fill="#262626"/>
<path d="M388.393 143.352C382.697 143.352 378.185 141.112 378.185 137.272C378.185 133.368 382.697 131.32 388.393 131.288C394.121 131.288 398.633 133.368 398.633 137.272C398.633 141.112 394.121 143.352 388.393 143.352ZM388.393 142.584C393.769 142.584 397.833 140.6 397.833 137.272C397.833 133.912 393.769 132.056 388.393 132.056C383.049 132.088 378.985 133.912 378.985 137.272C378.985 140.6 383.049 142.584 388.393 142.584Z" fill="#262626"/>
<path d="M435.268 142.264H441.092V143H430.148V142.264H434.468V138.008C434.468 134.744 433.7 132.024 429.892 132.024C426.628 132.024 424.356 134.168 422.244 136.568C422.276 137.048 422.308 137.528 422.308 138.008V142.264H426.628V143H417.22V142.264H421.54V138.008C421.54 134.744 420.74 132.024 416.964 132.024C413.732 132.024 411.524 134.136 409.412 136.504V142.264H413.732V143H402.788V142.264H408.612V132.312H402.788V131.576H409.412V135.672C411.172 133.368 413.764 131.256 416.964 131.256C420.292 131.256 421.732 133.112 422.148 135.864C423.94 133.496 426.596 131.256 429.892 131.256C433.988 131.256 435.268 134.104 435.268 138.008V142.264Z" fill="#262626"/>
<path d="M69.1042 131.576V132.312H64.9762L59.6322 143.32H59.4402L53.5202 133.048L47.6322 143.32H47.4402L42.1282 132.312H38.1602V131.576H46.8962V132.312H42.9922L47.6322 142.072L53.4882 131.832H53.6802L59.5682 142.136L64.1762 132.312H60.3042V131.576H69.1042Z" stroke="#262626" stroke-width="0.4" mask="url(#path-5-outside-1_139_13)"/>
<path d="M94.1469 141.784L94.5629 142.392C93.8269 142.936 92.9309 143.32 91.9389 143.32C90.4989 143.32 89.4109 142.392 89.1869 140.728C85.7629 142.424 81.8269 143.32 78.4029 143.32C74.3709 143.32 72.0989 142.104 72.0989 139.992C72.0989 137.624 74.9789 136.312 79.7149 136.312C83.3949 136.312 86.4989 136.792 89.1229 137.336V136.696C89.1229 134.008 87.1069 132.024 82.4989 132.024C79.1709 132.024 76.0989 132.824 72.7709 133.848L72.5789 133.08C76.0669 131.928 79.2989 131.256 82.4989 131.256C87.5229 131.256 89.9229 133.496 89.9229 136.696V140.024C89.9229 141.752 90.9149 142.552 91.9709 142.552C92.8669 142.552 93.5389 142.296 94.1469 141.784ZM72.8989 139.928C72.8989 141.624 74.8829 142.552 78.4029 142.552C81.7309 142.552 85.5389 141.656 89.1229 140.024V138.04C86.4669 137.496 83.2029 137.048 79.7149 137.048C75.4909 137.048 72.8989 138.136 72.8989 139.928Z" stroke="#262626" stroke-width="0.4" mask="url(#path-5-outside-1_139_13)"/>
<path d="M119.673 142.264H125.177V143H113.753V142.264H118.873V138.68C118.873 135.448 117.817 132.024 113.113 132.024C109.049 132.024 105.337 134.936 103.193 136.664V142.264H108.313V143H96.5689V142.264H102.393V132.312H96.5689V131.576H103.193V135.896C105.337 134.168 109.049 131.288 113.113 131.288C118.137 131.288 119.673 134.776 119.673 138.68V142.264Z" stroke="#262626" stroke-width="0.4" mask="url(#path-5-outside-1_139_13)"/>
<path d="M143.041 141.112C145.473 141.112 147.393 142.008 147.393 143.96C147.393 146.872 142.657 148.28 136.481 148.28C130.145 148.28 127.521 146.68 127.521 144.568C127.521 143.448 128.385 142.584 129.153 142.136C128.097 141.56 127.777 140.728 127.777 140.088C127.777 138.712 129.025 137.816 130.049 137.4C129.537 136.824 129.249 136.152 129.249 135.352C129.249 132.536 132.993 131.256 137.313 131.256C139.553 131.256 141.633 131.608 143.137 132.312C143.649 130.072 145.345 128.824 147.329 128.728V129.528C145.633 129.624 144.225 130.392 143.585 132.536C144.737 133.208 145.441 134.136 145.441 135.352C145.441 138.232 141.665 139.544 137.313 139.544C134.497 139.576 131.905 139 130.465 137.784C129.505 138.232 128.513 138.904 128.513 139.992C128.513 140.952 129.569 142.168 132.929 142.168C135.361 142.168 140.641 141.112 143.041 141.112ZM137.313 132.024C133.377 132.024 130.049 133.08 130.049 135.352C130.049 137.624 133.377 138.776 137.313 138.776C141.313 138.776 144.641 137.624 144.641 135.352C144.641 133.08 141.313 132.024 137.313 132.024ZM136.449 147.544C142.177 147.544 146.593 146.424 146.593 143.96C146.593 142.456 145.121 141.848 143.041 141.848C140.481 141.848 135.393 142.84 132.833 142.84C131.489 142.84 130.497 142.68 129.761 142.392C128.929 142.84 128.321 143.608 128.321 144.472C128.321 146.2 130.593 147.544 136.449 147.544Z" stroke="#262626" stroke-width="0.4" mask="url(#path-5-outside-1_139_13)"/>
<path d="M164.733 126.808C172.317 126.808 177.181 131.096 177.181 136.568C177.181 140.152 174.877 142.328 172.829 142.328C171.229 142.328 170.269 141.528 169.853 140.408C167.357 141.656 164.701 142.328 162.141 142.328C159.357 142.328 157.341 141.4 157.341 139.608C157.341 137.56 159.741 136.728 163.261 136.728C165.533 136.728 167.709 137.048 169.661 137.336V136.632C169.661 134.776 168.157 133.304 164.957 133.304C162.557 133.304 160.253 133.88 157.917 134.648V133.848C160.221 133.112 162.589 132.568 164.957 132.568C168.701 132.568 170.365 134.2 170.365 136.632V139.128C170.365 140.44 171.165 141.592 172.829 141.592C174.653 141.592 176.381 139.64 176.381 136.568C176.381 131.736 171.933 127.576 164.733 127.576C157.277 127.576 152.189 132.12 152.189 137.72C152.189 143.864 157.149 146.648 162.237 146.648C166.365 146.648 168.733 145.464 170.269 144.6L170.589 145.272C169.053 146.168 166.461 147.448 162.237 147.448C156.829 147.448 151.389 144.28 151.389 137.72C151.389 131.576 156.925 126.808 164.733 126.808ZM162.141 141.592C164.605 141.592 167.165 140.92 169.693 139.768C169.661 139.544 169.661 139.352 169.661 139.128V138.104C167.709 137.816 165.501 137.432 163.165 137.432C160.509 137.432 158.109 137.944 158.109 139.608C158.109 140.952 160.029 141.592 162.141 141.592Z" stroke="#262626" stroke-width="0.4" mask="url(#path-5-outside-1_139_13)"/>
<path d="M210.823 131.576V132.312H206.695L201.351 143.32H201.159L195.239 133.048L189.351 143.32H189.159L183.847 132.312H179.879V131.576H188.615V132.312H184.711L189.351 142.072L195.207 131.832H195.399L201.287 142.136L205.895 132.312H202.023V131.576H210.823Z" stroke="#262626" stroke-width="0.4" mask="url(#path-5-outside-1_139_13)"/>
<path d="M231.898 140.152L232.25 140.792C229.818 142.296 227.13 143.352 222.778 143.352C217.594 143.352 213.498 141.176 213.498 137.528C213.498 133.496 218.618 131.288 223.738 131.288C228.57 131.288 231.802 132.632 231.802 135C231.802 137.496 228.506 138.52 224.186 138.52C220.762 138.52 217.658 137.912 214.362 136.792C214.33 137.048 214.298 137.272 214.298 137.528C214.298 140.536 217.914 142.552 222.778 142.584C226.746 142.648 229.53 141.624 231.898 140.152ZM223.738 132.024C219.642 132.024 215.578 133.528 214.554 136.216C217.786 137.24 220.858 137.752 224.186 137.752C228.026 137.752 231.002 137.048 231.002 135C231.002 133.112 228.218 132.024 223.738 132.024Z" stroke="#262626" stroke-width="0.4" mask="url(#path-5-outside-1_139_13)"/>
<path d="M259.584 141.784L260 142.392C259.264 142.936 258.368 143.32 257.376 143.32C255.936 143.32 254.848 142.392 254.624 140.728C251.2 142.424 247.264 143.32 243.84 143.32C239.808 143.32 237.536 142.104 237.536 139.992C237.536 137.624 240.416 136.312 245.152 136.312C248.832 136.312 251.936 136.792 254.56 137.336V136.696C254.56 134.008 252.544 132.024 247.936 132.024C244.608 132.024 241.536 132.824 238.208 133.848L238.016 133.08C241.504 131.928 244.736 131.256 247.936 131.256C252.96 131.256 255.36 133.496 255.36 136.696V140.024C255.36 141.752 256.352 142.552 257.408 142.552C258.304 142.552 258.976 142.296 259.584 141.784ZM238.336 139.928C238.336 141.624 240.32 142.552 243.84 142.552C247.168 142.552 250.976 141.656 254.56 140.024V138.04C251.904 137.496 248.64 137.048 245.152 137.048C240.928 137.048 238.336 138.136 238.336 139.928Z" stroke="#262626" stroke-width="0.4" mask="url(#path-5-outside-1_139_13)"/>
<path d="M285.826 139.672L286.498 139.832C286.05 142.008 284.386 143.64 281.826 143.64C279.074 143.64 276.866 141.464 274.914 138.712C271.97 138.712 269.122 138.264 267.49 137.976V142.264H273.346V143H260.898V142.264H266.69V127.128H260.898V126.36H267.49V135.32C271.106 132.92 274.946 131.288 278.562 131.288C282.018 131.288 284.13 132.504 284.13 134.552C284.13 137.208 280.93 138.584 275.746 138.712C277.826 141.336 279.394 142.872 281.858 142.872C283.746 142.872 285.378 141.784 285.826 139.672ZM267.49 135.992V137.4C269.122 137.592 272.386 137.944 275.042 137.944C279.906 137.944 283.33 136.792 283.33 134.616C283.33 132.856 281.442 132.024 278.402 132.024C274.85 132.024 271.074 133.656 267.49 135.992Z" stroke="#262626" stroke-width="0.4" mask="url(#path-5-outside-1_139_13)"/>
<path d="M301.174 143.352C295.478 143.352 290.966 141.112 290.966 137.272C290.966 133.368 295.478 131.32 301.174 131.288C306.902 131.288 311.414 133.368 311.414 137.272C311.414 141.112 306.902 143.352 301.174 143.352ZM301.174 142.584C306.55 142.584 310.614 140.6 310.614 137.272C310.614 133.912 306.55 132.056 301.174 132.056C295.83 132.088 291.766 133.912 291.766 137.272C291.766 140.6 295.83 142.584 301.174 142.584Z" stroke="#262626" stroke-width="0.4" mask="url(#path-5-outside-1_139_13)"/>
<path d="M345.073 131.576V132.312H340.945L335.601 143.32H335.409L329.489 133.048L323.601 143.32H323.409L318.097 132.312H314.129V131.576H322.865V132.312H318.961L323.601 142.072L329.457 131.832H329.649L335.537 142.136L340.145 132.312H336.273V131.576H345.073Z" stroke="#262626" stroke-width="0.4" mask="url(#path-5-outside-1_139_13)"/>
<path d="M347.406 143.32C346.382 143.32 345.806 142.84 345.806 142.296C345.806 141.688 346.382 141.24 347.406 141.24C348.398 141.24 348.942 141.688 348.942 142.296C348.942 142.84 348.398 143.32 347.406 143.32Z" stroke="#262626" stroke-width="0.4" mask="url(#path-5-outside-1_139_13)"/>
<path d="M372.092 139.352L372.54 139.928C370.044 141.944 366.844 143.352 362.524 143.352C357.5 143.352 353.404 141.144 353.404 137.496C353.404 133.304 358.268 131.224 362.908 131.288C366.588 131.288 369.852 132.696 371.612 134.488V131.576H372.348V135.928L372.156 135.96C370.044 133.208 366.332 132.024 362.844 132.024C358.588 132.024 354.204 133.848 354.204 137.496C354.204 140.504 357.82 142.552 362.524 142.584C366.524 142.616 369.724 141.208 372.092 139.352Z" stroke="#262626" stroke-width="0.4" mask="url(#path-5-outside-1_139_13)"/>
<path d="M388.393 143.352C382.697 143.352 378.185 141.112 378.185 137.272C378.185 133.368 382.697 131.32 388.393 131.288C394.121 131.288 398.633 133.368 398.633 137.272C398.633 141.112 394.121 143.352 388.393 143.352ZM388.393 142.584C393.769 142.584 397.833 140.6 397.833 137.272C397.833 133.912 393.769 132.056 388.393 132.056C383.049 132.088 378.985 133.912 378.985 137.272C378.985 140.6 383.049 142.584 388.393 142.584Z" stroke="#262626" stroke-width="0.4" mask="url(#path-5-outside-1_139_13)"/>
<path d="M435.268 142.264H441.092V143H430.148V142.264H434.468V138.008C434.468 134.744 433.7 132.024 429.892 132.024C426.628 132.024 424.356 134.168 422.244 136.568C422.276 137.048 422.308 137.528 422.308 138.008V142.264H426.628V143H417.22V142.264H421.54V138.008C421.54 134.744 420.74 132.024 416.964 132.024C413.732 132.024 411.524 134.136 409.412 136.504V142.264H413.732V143H402.788V142.264H408.612V132.312H402.788V131.576H409.412V135.672C411.172 133.368 413.764 131.256 416.964 131.256C420.292 131.256 421.732 133.112 422.148 135.864C423.94 133.496 426.596 131.256 429.892 131.256C433.988 131.256 435.268 134.104 435.268 138.008V142.264Z" stroke="#262626" stroke-width="0.4" mask="url(#path-5-outside-1_139_13)"/>
<path d="M193.792 194.176C192.755 194.176 191.888 193.971 191.19 193.561C190.493 193.145 189.966 192.562 189.608 191.812C189.257 191.056 189.081 190.165 189.081 189.14C189.081 188.384 189.166 187.619 189.336 186.846C189.512 186.072 189.775 185.334 190.127 184.631C190.479 183.922 190.927 183.292 191.472 182.741C192.017 182.19 192.661 181.754 193.405 181.432C194.149 181.109 194.999 180.948 195.954 180.948C196.769 180.948 197.46 181.024 198.028 181.177C198.597 181.329 199.165 181.561 199.733 181.871L198.696 184.068C198.28 183.828 197.853 183.626 197.413 183.462C196.979 183.298 196.493 183.216 195.954 183.216C195.374 183.216 194.858 183.333 194.407 183.567C193.956 183.802 193.566 184.121 193.238 184.525C192.916 184.924 192.649 185.375 192.438 185.879C192.228 186.377 192.069 186.896 191.964 187.435C191.864 187.974 191.814 188.495 191.814 188.999C191.814 189.972 192.017 190.698 192.421 191.179C192.825 191.653 193.464 191.891 194.337 191.891C194.823 191.891 195.315 191.829 195.813 191.706C196.312 191.577 196.81 191.413 197.308 191.214V193.499C196.95 193.64 196.47 193.789 195.866 193.947C195.269 194.1 194.577 194.176 193.792 194.176ZM202.59 194.176C202.115 194.176 201.667 194.059 201.245 193.824C200.823 193.59 200.478 193.212 200.208 192.69C199.944 192.169 199.812 191.478 199.812 190.616C199.812 189.972 199.88 189.333 200.015 188.7C200.155 188.067 200.354 187.47 200.612 186.907C200.876 186.339 201.192 185.838 201.562 185.404C201.937 184.965 202.358 184.619 202.827 184.367C203.302 184.115 203.814 183.989 204.365 183.989C204.781 183.989 205.145 184.051 205.455 184.174C205.766 184.291 206.032 184.458 206.255 184.675C206.478 184.892 206.659 185.144 206.8 185.431H206.87L207.371 184.174H209.41L207.318 194H205.341L205.464 192.726H205.394C205.159 193.013 204.904 193.265 204.629 193.481C204.354 193.698 204.049 193.868 203.715 193.991C203.381 194.114 203.006 194.176 202.59 194.176ZM203.627 192.04C203.99 192.04 204.327 191.899 204.638 191.618C204.948 191.331 205.215 190.959 205.438 190.502C205.66 190.045 205.818 189.562 205.912 189.052C205.959 188.817 205.991 188.583 206.009 188.349C206.032 188.108 206.044 187.851 206.044 187.575C206.044 187.159 205.933 186.816 205.71 186.547C205.493 186.271 205.194 186.134 204.813 186.134C204.556 186.134 204.31 186.219 204.075 186.389C203.847 186.553 203.636 186.781 203.442 187.074C203.249 187.361 203.079 187.692 202.933 188.067C202.792 188.437 202.684 188.829 202.607 189.245C202.531 189.661 202.493 190.077 202.493 190.493C202.493 191.003 202.593 191.39 202.792 191.653C202.991 191.911 203.27 192.04 203.627 192.04ZM210.052 194L212.952 180.324H215.598L212.697 194H210.052ZM215.396 194L218.296 180.324H220.941L218.041 194H215.396ZM225.415 194L227.498 184.174H229.52L229.335 185.993H229.414C229.666 185.601 229.944 185.255 230.249 184.956C230.554 184.657 230.891 184.423 231.26 184.253C231.635 184.077 232.051 183.989 232.508 183.989C233.182 183.989 233.703 184.168 234.072 184.525C234.447 184.877 234.693 185.366 234.811 185.993H234.881C235.127 185.601 235.405 185.255 235.716 184.956C236.026 184.657 236.372 184.423 236.753 184.253C237.14 184.077 237.559 183.989 238.01 183.989C238.83 183.989 239.442 184.244 239.847 184.754C240.257 185.264 240.462 185.952 240.462 186.819C240.462 187.036 240.444 187.279 240.409 187.549C240.374 187.818 240.324 188.103 240.26 188.401L239.091 194H236.445L237.658 188.261C237.705 188.062 237.74 187.874 237.764 187.698C237.787 187.522 237.799 187.361 237.799 187.215C237.799 186.846 237.726 186.573 237.579 186.397C237.438 186.222 237.225 186.134 236.938 186.134C236.633 186.134 236.352 186.23 236.094 186.424C235.836 186.617 235.602 186.887 235.391 187.232C235.18 187.578 234.992 187.979 234.828 188.437C234.67 188.894 234.538 189.386 234.433 189.913L233.589 194H230.943L232.147 188.261C232.194 188.062 232.229 187.874 232.253 187.698C232.276 187.522 232.288 187.361 232.288 187.215C232.288 186.846 232.215 186.573 232.068 186.397C231.928 186.222 231.714 186.134 231.427 186.134C231.128 186.134 230.85 186.233 230.592 186.433C230.334 186.632 230.1 186.907 229.889 187.259C229.678 187.604 229.49 188.006 229.326 188.463C229.168 188.92 229.033 189.409 228.922 189.931L228.061 194H225.415ZM246.061 194.176C245.293 194.176 244.616 194.038 244.03 193.763C243.45 193.481 242.996 193.06 242.668 192.497C242.34 191.935 242.176 191.229 242.176 190.379C242.176 189.559 242.293 188.768 242.527 188.006C242.762 187.238 243.11 186.553 243.573 185.949C244.042 185.346 244.616 184.868 245.296 184.517C245.981 184.165 246.772 183.989 247.669 183.989C248.771 183.989 249.594 184.241 250.139 184.745C250.689 185.243 250.965 185.885 250.965 186.67C250.965 187.186 250.848 187.654 250.613 188.076C250.385 188.498 250.036 188.861 249.567 189.166C249.099 189.465 248.51 189.696 247.801 189.86C247.092 190.019 246.26 190.098 245.305 190.098H244.856C244.851 190.168 244.845 190.229 244.839 190.282C244.839 190.335 244.839 190.394 244.839 190.458C244.839 190.985 244.991 191.404 245.296 191.715C245.601 192.025 246.031 192.181 246.588 192.181C247.104 192.181 247.572 192.122 247.994 192.005C248.416 191.888 248.914 191.694 249.488 191.425V193.42C248.973 193.672 248.448 193.862 247.915 193.991C247.382 194.114 246.764 194.176 246.061 194.176ZM245.146 188.313H245.542C246.222 188.313 246.772 188.24 247.194 188.094C247.622 187.947 247.933 187.754 248.126 187.514C248.325 187.273 248.425 187.013 248.425 186.731C248.425 186.45 248.343 186.242 248.179 186.107C248.021 185.967 247.795 185.896 247.502 185.896C247.174 185.896 246.849 185.999 246.526 186.204C246.204 186.409 245.92 186.693 245.674 187.057C245.428 187.42 245.252 187.839 245.146 188.313Z" fill="#E11D48"/>
<path d="M159.466 234L162.182 221.15H169.336L168.861 223.383H164.396L163.702 226.696H167.859L167.367 228.92H163.21L162.146 234H159.466ZM168.888 234L170.971 224.174H173.616L171.533 234H168.888ZM172.72 222.952C172.345 222.952 172.028 222.87 171.771 222.706C171.519 222.542 171.393 222.264 171.393 221.871C171.393 221.531 171.454 221.247 171.577 221.019C171.706 220.79 171.891 220.617 172.131 220.5C172.371 220.383 172.658 220.324 172.992 220.324C173.344 220.324 173.648 220.4 173.906 220.553C174.17 220.705 174.302 220.98 174.302 221.379C174.302 221.848 174.173 222.229 173.915 222.521C173.657 222.809 173.259 222.952 172.72 222.952ZM174.231 234L176.314 224.174H178.336L178.151 225.993H178.23C178.482 225.601 178.761 225.255 179.065 224.956C179.37 224.657 179.707 224.423 180.076 224.253C180.451 224.077 180.867 223.989 181.324 223.989C181.887 223.989 182.355 224.106 182.73 224.341C183.111 224.569 183.396 224.895 183.583 225.316C183.771 225.738 183.864 226.239 183.864 226.819C183.864 227.036 183.847 227.279 183.812 227.549C183.776 227.818 183.727 228.103 183.662 228.401L182.493 234H179.848L181.052 228.261C181.099 228.062 181.134 227.874 181.157 227.698C181.181 227.522 181.192 227.361 181.192 227.215C181.192 226.846 181.113 226.573 180.955 226.397C180.797 226.222 180.56 226.134 180.243 226.134C179.845 226.134 179.484 226.307 179.162 226.652C178.84 226.992 178.559 227.449 178.318 228.023C178.084 228.598 177.891 229.233 177.738 229.931L176.877 234H174.231ZM188.355 234.176C187.881 234.176 187.433 234.059 187.011 233.824C186.589 233.59 186.243 233.212 185.974 232.69C185.71 232.163 185.578 231.466 185.578 230.599C185.578 229.96 185.646 229.324 185.78 228.691C185.921 228.059 186.12 227.461 186.378 226.898C186.642 226.33 186.958 225.829 187.327 225.396C187.702 224.956 188.124 224.613 188.593 224.367C189.067 224.115 189.58 223.989 190.131 223.989C190.523 223.989 190.854 224.054 191.124 224.183C191.399 224.312 191.637 224.484 191.836 224.701C192.035 224.918 192.211 225.161 192.363 225.431H192.434C192.434 225.396 192.442 225.267 192.46 225.044C192.478 224.821 192.504 224.566 192.539 224.279C192.574 223.986 192.618 223.717 192.671 223.471L193.339 220.324H195.984L193.084 234H191.071L191.229 232.726H191.159C190.925 233.013 190.67 233.265 190.395 233.481C190.125 233.698 189.823 233.868 189.489 233.991C189.155 234.114 188.777 234.176 188.355 234.176ZM189.463 232.04C189.738 232.04 189.987 231.967 190.21 231.82C190.438 231.668 190.638 231.469 190.808 231.223C190.983 230.971 191.133 230.689 191.256 230.379C191.385 230.068 191.49 229.752 191.572 229.43C191.654 229.102 191.713 228.785 191.748 228.48C191.789 228.176 191.81 227.909 191.81 227.681C191.81 227.212 191.698 226.837 191.476 226.556C191.259 226.274 190.96 226.134 190.579 226.134C190.321 226.134 190.075 226.219 189.841 226.389C189.612 226.553 189.401 226.781 189.208 227.074C189.015 227.361 188.845 227.692 188.698 228.067C188.558 228.437 188.449 228.829 188.373 229.245C188.297 229.661 188.259 230.077 188.259 230.493C188.259 231.003 188.361 231.39 188.566 231.653C188.777 231.911 189.076 232.04 189.463 232.04ZM200.493 234L202.576 224.174H204.598L204.413 225.993H204.492C204.744 225.601 205.022 225.255 205.327 224.956C205.632 224.657 205.969 224.423 206.338 224.253C206.713 224.077 207.129 223.989 207.586 223.989C208.26 223.989 208.781 224.168 209.15 224.525C209.525 224.877 209.771 225.366 209.889 225.993H209.959C210.205 225.601 210.483 225.255 210.794 224.956C211.104 224.657 211.45 224.423 211.831 224.253C212.218 224.077 212.637 223.989 213.088 223.989C213.908 223.989 214.521 224.244 214.925 224.754C215.335 225.264 215.54 225.952 215.54 226.819C215.54 227.036 215.522 227.279 215.487 227.549C215.452 227.818 215.402 228.103 215.338 228.401L214.169 234H211.523L212.736 228.261C212.783 228.062 212.818 227.874 212.842 227.698C212.865 227.522 212.877 227.361 212.877 227.215C212.877 226.846 212.804 226.573 212.657 226.397C212.517 226.222 212.303 226.134 212.016 226.134C211.711 226.134 211.43 226.23 211.172 226.424C210.914 226.617 210.68 226.887 210.469 227.232C210.258 227.578 210.07 227.979 209.906 228.437C209.748 228.894 209.616 229.386 209.511 229.913L208.667 234H206.021L207.226 228.261C207.272 228.062 207.308 227.874 207.331 227.698C207.354 227.522 207.366 227.361 207.366 227.215C207.366 226.846 207.293 226.573 207.146 226.397C207.006 226.222 206.792 226.134 206.505 226.134C206.206 226.134 205.928 226.233 205.67 226.433C205.412 226.632 205.178 226.907 204.967 227.259C204.756 227.604 204.568 228.006 204.404 228.463C204.246 228.92 204.111 229.409 204 229.931L203.139 234H200.493ZM221.139 234.176C220.371 234.176 219.694 234.038 219.108 233.763C218.528 233.481 218.074 233.06 217.746 232.497C217.418 231.935 217.254 231.229 217.254 230.379C217.254 229.559 217.371 228.768 217.605 228.006C217.84 227.238 218.188 226.553 218.651 225.949C219.12 225.346 219.694 224.868 220.374 224.517C221.06 224.165 221.851 223.989 222.747 223.989C223.849 223.989 224.672 224.241 225.217 224.745C225.768 225.243 226.043 225.885 226.043 226.67C226.043 227.186 225.926 227.654 225.691 228.076C225.463 228.498 225.114 228.861 224.646 229.166C224.177 229.465 223.588 229.696 222.879 229.86C222.17 230.019 221.338 230.098 220.383 230.098H219.935C219.929 230.168 219.923 230.229 219.917 230.282C219.917 230.335 219.917 230.394 219.917 230.458C219.917 230.985 220.069 231.404 220.374 231.715C220.679 232.025 221.109 232.181 221.666 232.181C222.182 232.181 222.65 232.122 223.072 232.005C223.494 231.888 223.992 231.694 224.566 231.425V233.42C224.051 233.672 223.526 233.862 222.993 233.991C222.46 234.114 221.842 234.176 221.139 234.176ZM220.225 228.313H220.62C221.3 228.313 221.851 228.24 222.272 228.094C222.7 227.947 223.011 227.754 223.204 227.514C223.403 227.273 223.503 227.013 223.503 226.731C223.503 226.45 223.421 226.242 223.257 226.107C223.099 225.967 222.873 225.896 222.58 225.896C222.252 225.896 221.927 225.999 221.604 226.204C221.282 226.409 220.998 226.693 220.752 227.057C220.506 227.42 220.33 227.839 220.225 228.313ZM235.729 234.176C234.99 234.176 234.337 234.023 233.769 233.719C233.206 233.414 232.764 232.98 232.441 232.418C232.125 231.85 231.967 231.176 231.967 230.396C231.967 229.699 232.034 229.034 232.169 228.401C232.31 227.763 232.518 227.177 232.793 226.644C233.074 226.104 233.423 225.639 233.839 225.246C234.261 224.848 234.75 224.54 235.307 224.323C235.863 224.101 236.49 223.989 237.188 223.989C237.949 223.989 238.608 224.145 239.165 224.455C239.722 224.76 240.152 225.202 240.457 225.782C240.762 226.362 240.914 227.062 240.914 227.883C240.914 228.551 240.847 229.195 240.712 229.816C240.583 230.432 240.384 231.006 240.114 231.539C239.845 232.066 239.505 232.529 239.095 232.928C238.685 233.32 238.198 233.628 237.636 233.851C237.079 234.067 236.443 234.176 235.729 234.176ZM235.948 232.022C236.241 232.022 236.508 231.949 236.748 231.803C236.988 231.65 237.202 231.442 237.39 231.179C237.577 230.909 237.732 230.602 237.855 230.256C237.984 229.904 238.081 229.526 238.146 229.122C238.216 228.718 238.251 228.305 238.251 227.883C238.251 227.549 238.21 227.253 238.128 226.995C238.052 226.731 237.92 226.526 237.732 226.38C237.551 226.228 237.305 226.151 236.994 226.151C236.672 226.151 236.382 226.242 236.124 226.424C235.872 226.6 235.652 226.837 235.465 227.136C235.277 227.435 235.122 227.769 234.999 228.138C234.876 228.507 234.782 228.888 234.718 229.28C234.659 229.667 234.63 230.039 234.63 230.396C234.63 230.93 234.738 231.334 234.955 231.609C235.172 231.885 235.503 232.022 235.948 232.022ZM242.03 234L244.113 224.174H246.135L245.95 225.993H246.029C246.281 225.601 246.56 225.255 246.864 224.956C247.169 224.657 247.506 224.423 247.875 224.253C248.25 224.077 248.666 223.989 249.123 223.989C249.686 223.989 250.154 224.106 250.529 224.341C250.91 224.569 251.194 224.895 251.382 225.316C251.569 225.738 251.663 226.239 251.663 226.819C251.663 227.036 251.646 227.279 251.61 227.549C251.575 227.818 251.525 228.103 251.461 228.401L250.292 234H247.646L248.851 228.261C248.897 228.062 248.933 227.874 248.956 227.698C248.979 227.522 248.991 227.361 248.991 227.215C248.991 226.846 248.912 226.573 248.754 226.397C248.596 226.222 248.358 226.134 248.042 226.134C247.644 226.134 247.283 226.307 246.961 226.652C246.639 226.992 246.357 227.449 246.117 228.023C245.883 228.598 245.689 229.233 245.537 229.931L244.676 234H242.03ZM259.274 234L258.879 221.15H261.401L261.454 228.164C261.454 228.615 261.445 229.119 261.428 229.676C261.41 230.232 261.378 230.745 261.331 231.214H261.401C261.565 230.745 261.747 230.244 261.946 229.711C262.151 229.172 262.336 228.718 262.5 228.349L265.743 221.15H268.116L268.292 228.349C268.304 228.653 268.304 229.087 268.292 229.649C268.28 230.206 268.257 230.728 268.222 231.214H268.292C268.403 230.88 268.523 230.528 268.652 230.159C268.787 229.79 268.922 229.43 269.057 229.078C269.191 228.727 269.314 228.416 269.426 228.146L272.326 221.15H275.042L269.355 234H266.314L266.174 228.146C266.162 227.625 266.153 227.194 266.147 226.854C266.142 226.509 266.139 226.198 266.139 225.923C266.139 225.647 266.145 225.357 266.156 225.053H266.086C265.934 225.533 265.775 225.99 265.611 226.424C265.447 226.857 265.274 227.276 265.093 227.681L262.245 234H259.274ZM278.039 234.176C277.271 234.176 276.595 234.038 276.009 233.763C275.429 233.481 274.975 233.06 274.646 232.497C274.318 231.935 274.154 231.229 274.154 230.379C274.154 229.559 274.271 228.768 274.506 228.006C274.74 227.238 275.089 226.553 275.552 225.949C276.021 225.346 276.595 224.868 277.274 224.517C277.96 224.165 278.751 223.989 279.647 223.989C280.749 223.989 281.572 224.241 282.117 224.745C282.668 225.243 282.943 225.885 282.943 226.67C282.943 227.186 282.826 227.654 282.592 228.076C282.363 228.498 282.015 228.861 281.546 229.166C281.077 229.465 280.488 229.696 279.779 229.86C279.07 230.019 278.238 230.098 277.283 230.098H276.835C276.829 230.168 276.823 230.229 276.817 230.282C276.817 230.335 276.817 230.394 276.817 230.458C276.817 230.985 276.97 231.404 277.274 231.715C277.579 232.025 278.01 232.181 278.566 232.181C279.082 232.181 279.551 232.122 279.973 232.005C280.395 231.888 280.893 231.694 281.467 231.425V233.42C280.951 233.672 280.427 233.862 279.894 233.991C279.36 234.114 278.742 234.176 278.039 234.176ZM277.125 228.313H277.521C278.2 228.313 278.751 228.24 279.173 228.094C279.601 227.947 279.911 227.754 280.104 227.514C280.304 227.273 280.403 227.013 280.403 226.731C280.403 226.45 280.321 226.242 280.157 226.107C279.999 225.967 279.773 225.896 279.48 225.896C279.152 225.896 278.827 225.999 278.505 226.204C278.183 226.409 277.898 226.693 277.652 227.057C277.406 227.42 277.23 227.839 277.125 228.313ZM283.726 234L285.809 224.174H288.454L286.371 234H283.726ZM287.558 222.952C287.183 222.952 286.866 222.87 286.608 222.706C286.356 222.542 286.23 222.264 286.23 221.871C286.23 221.531 286.292 221.247 286.415 221.019C286.544 220.79 286.729 220.617 286.969 220.5C287.209 220.383 287.496 220.324 287.83 220.324C288.182 220.324 288.486 220.4 288.744 220.553C289.008 220.705 289.14 220.98 289.14 221.379C289.14 221.848 289.011 222.229 288.753 222.521C288.495 222.809 288.097 222.952 287.558 222.952ZM294.105 234.176C293.695 234.176 293.335 234.117 293.024 234C292.714 233.877 292.447 233.71 292.225 233.499C292.008 233.282 291.826 233.03 291.68 232.743H291.609L291.1 234H289.069L291.97 220.324H294.615L294.07 222.855C294.018 223.096 293.95 223.377 293.868 223.699C293.786 224.016 293.698 224.335 293.604 224.657C293.511 224.974 293.42 225.249 293.332 225.483H293.402C293.613 225.22 293.833 224.974 294.062 224.745C294.29 224.517 294.551 224.335 294.844 224.2C295.143 224.06 295.491 223.989 295.89 223.989C296.364 223.989 296.812 224.106 297.234 224.341C297.656 224.575 297.999 224.953 298.263 225.475C298.526 225.996 298.658 226.69 298.658 227.558C298.658 228.196 298.588 228.835 298.447 229.474C298.312 230.106 298.113 230.704 297.85 231.267C297.592 231.829 297.275 232.33 296.9 232.77C296.531 233.209 296.112 233.555 295.644 233.807C295.175 234.053 294.662 234.176 294.105 234.176ZM293.657 232.04C293.915 232.04 294.161 231.958 294.396 231.794C294.63 231.624 294.844 231.396 295.037 231.108C295.23 230.815 295.397 230.484 295.538 230.115C295.679 229.74 295.787 229.345 295.863 228.929C295.939 228.513 295.978 228.097 295.978 227.681C295.978 227.165 295.881 226.778 295.688 226.521C295.5 226.263 295.213 226.134 294.826 226.134C294.545 226.134 294.287 226.207 294.053 226.354C293.824 226.5 293.622 226.699 293.446 226.951C293.271 227.197 293.118 227.476 292.989 227.786C292.86 228.097 292.755 228.416 292.673 228.744C292.591 229.066 292.529 229.38 292.488 229.685C292.453 229.989 292.436 230.259 292.436 230.493C292.436 230.956 292.544 231.331 292.761 231.618C292.983 231.899 293.282 232.04 293.657 232.04ZM304.02 234.176C303.281 234.176 302.628 234.023 302.06 233.719C301.497 233.414 301.055 232.98 300.732 232.418C300.416 231.85 300.258 231.176 300.258 230.396C300.258 229.699 300.325 229.034 300.46 228.401C300.601 227.763 300.809 227.177 301.084 226.644C301.365 226.104 301.714 225.639 302.13 225.246C302.552 224.848 303.041 224.54 303.598 224.323C304.154 224.101 304.781 223.989 305.479 223.989C306.24 223.989 306.899 224.145 307.456 224.455C308.013 224.76 308.443 225.202 308.748 225.782C309.053 226.362 309.205 227.062 309.205 227.883C309.205 228.551 309.138 229.195 309.003 229.816C308.874 230.432 308.675 231.006 308.405 231.539C308.136 232.066 307.796 232.529 307.386 232.928C306.976 233.32 306.489 233.628 305.927 233.851C305.37 234.067 304.734 234.176 304.02 234.176ZM304.239 232.022C304.532 232.022 304.799 231.949 305.039 231.803C305.279 231.65 305.493 231.442 305.681 231.179C305.868 230.909 306.023 230.602 306.146 230.256C306.275 229.904 306.372 229.526 306.437 229.122C306.507 228.718 306.542 228.305 306.542 227.883C306.542 227.549 306.501 227.253 306.419 226.995C306.343 226.731 306.211 226.526 306.023 226.38C305.842 226.228 305.596 226.151 305.285 226.151C304.963 226.151 304.673 226.242 304.415 226.424C304.163 226.6 303.943 226.837 303.756 227.136C303.568 227.435 303.413 227.769 303.29 228.138C303.167 228.507 303.073 228.888 303.009 229.28C302.95 229.667 302.921 230.039 302.921 230.396C302.921 230.93 303.029 231.334 303.246 231.609C303.463 231.885 303.794 232.022 304.239 232.022ZM309.205 234L316.315 221.15H318.908L311.798 234H309.205ZM316.544 234L321.606 227.285L319.515 221.15H322.327L323.672 225.703L326.862 221.15H329.886L325.096 227.522L327.451 234H324.542L323.03 229.228L319.55 234H316.544Z" fill="#D97706"/>
<path d="M47.4658 274L50.1816 261.15H57.3711L56.8965 263.383H52.3965L51.8076 266.204H56L55.5166 268.437H51.3242L50.6211 271.75H55.1211L54.6465 274H47.4658ZM57.0811 274L59.1641 264.174H61.1855L61.001 265.993H61.0801C61.332 265.601 61.6104 265.255 61.915 264.956C62.2197 264.657 62.5566 264.423 62.9258 264.253C63.3008 264.077 63.7168 263.989 64.1738 263.989C64.8477 263.989 65.3691 264.168 65.7383 264.525C66.1133 264.877 66.3594 265.366 66.4766 265.993H66.5469C66.793 265.601 67.0713 265.255 67.3818 264.956C67.6924 264.657 68.0381 264.423 68.4189 264.253C68.8057 264.077 69.2246 263.989 69.6758 263.989C70.4961 263.989 71.1084 264.244 71.5127 264.754C71.9229 265.264 72.1279 265.952 72.1279 266.819C72.1279 267.036 72.1104 267.279 72.0752 267.549C72.04 267.818 71.9902 268.103 71.9258 268.401L70.7568 274H68.1113L69.3242 268.261C69.3711 268.062 69.4062 267.874 69.4297 267.698C69.4531 267.522 69.4648 267.361 69.4648 267.215C69.4648 266.846 69.3916 266.573 69.2451 266.397C69.1045 266.222 68.8906 266.134 68.6035 266.134C68.2988 266.134 68.0176 266.23 67.7598 266.424C67.502 266.617 67.2676 266.887 67.0566 267.232C66.8457 267.578 66.6582 267.979 66.4941 268.437C66.3359 268.894 66.2041 269.386 66.0986 269.913L65.2549 274H62.6094L63.8135 268.261C63.8604 268.062 63.8955 267.874 63.9189 267.698C63.9424 267.522 63.9541 267.361 63.9541 267.215C63.9541 266.846 63.8809 266.573 63.7344 266.397C63.5938 266.222 63.3799 266.134 63.0928 266.134C62.7939 266.134 62.5156 266.233 62.2578 266.433C62 266.632 61.7656 266.907 61.5547 267.259C61.3438 267.604 61.1562 268.006 60.9922 268.463C60.834 268.92 60.6992 269.409 60.5879 269.931L59.7266 274H57.0811ZM76.6191 274.176C76.1445 274.176 75.6963 274.059 75.2744 273.824C74.8525 273.59 74.5068 273.212 74.2373 272.69C73.9736 272.169 73.8418 271.478 73.8418 270.616C73.8418 269.972 73.9092 269.333 74.0439 268.7C74.1846 268.067 74.3838 267.47 74.6416 266.907C74.9053 266.339 75.2217 265.838 75.5908 265.404C75.9658 264.965 76.3877 264.619 76.8564 264.367C77.3311 264.115 77.8438 263.989 78.3945 263.989C78.8105 263.989 79.1738 264.051 79.4844 264.174C79.7949 264.291 80.0615 264.458 80.2842 264.675C80.5068 264.892 80.6885 265.144 80.8291 265.431H80.8994L81.4004 264.174H83.4395L81.3477 274H79.3701L79.4932 272.726H79.4229C79.1885 273.013 78.9336 273.265 78.6582 273.481C78.3828 273.698 78.0781 273.868 77.7441 273.991C77.4102 274.114 77.0352 274.176 76.6191 274.176ZM77.6562 272.04C78.0195 272.04 78.3564 271.899 78.667 271.618C78.9775 271.331 79.2441 270.959 79.4668 270.502C79.6895 270.045 79.8477 269.562 79.9414 269.052C79.9883 268.817 80.0205 268.583 80.0381 268.349C80.0615 268.108 80.0732 267.851 80.0732 267.575C80.0732 267.159 79.9619 266.816 79.7393 266.547C79.5225 266.271 79.2236 266.134 78.8428 266.134C78.585 266.134 78.3389 266.219 78.1045 266.389C77.876 266.553 77.665 266.781 77.4717 267.074C77.2783 267.361 77.1084 267.692 76.9619 268.067C76.8213 268.437 76.7129 268.829 76.6367 269.245C76.5605 269.661 76.5225 270.077 76.5225 270.493C76.5225 271.003 76.6221 271.39 76.8213 271.653C77.0205 271.911 77.2988 272.04 77.6562 272.04ZM84.0811 274L86.1641 264.174H88.8096L86.7266 274H84.0811ZM87.9131 262.952C87.5381 262.952 87.2217 262.87 86.9639 262.706C86.7119 262.542 86.5859 262.264 86.5859 261.871C86.5859 261.531 86.6475 261.247 86.7705 261.019C86.8994 260.79 87.084 260.617 87.3242 260.5C87.5645 260.383 87.8516 260.324 88.1855 260.324C88.5371 260.324 88.8418 260.4 89.0996 260.553C89.3633 260.705 89.4951 260.98 89.4951 261.379C89.4951 261.848 89.3662 262.229 89.1084 262.521C88.8506 262.809 88.4521 262.952 87.9131 262.952ZM89.4248 274L92.3252 260.324H94.9707L92.0703 274H89.4248ZM99.4443 274L101.527 264.174H103.549L103.364 265.993H103.443C103.695 265.601 103.974 265.255 104.278 264.956C104.583 264.657 104.92 264.423 105.289 264.253C105.664 264.077 106.08 263.989 106.537 263.989C107.211 263.989 107.732 264.168 108.102 264.525C108.477 264.877 108.723 265.366 108.84 265.993H108.91C109.156 265.601 109.435 265.255 109.745 264.956C110.056 264.657 110.401 264.423 110.782 264.253C111.169 264.077 111.588 263.989 112.039 263.989C112.859 263.989 113.472 264.244 113.876 264.754C114.286 265.264 114.491 265.952 114.491 266.819C114.491 267.036 114.474 267.279 114.438 267.549C114.403 267.818 114.354 268.103 114.289 268.401L113.12 274H110.475L111.688 268.261C111.734 268.062 111.77 267.874 111.793 267.698C111.816 267.522 111.828 267.361 111.828 267.215C111.828 266.846 111.755 266.573 111.608 266.397C111.468 266.222 111.254 266.134 110.967 266.134C110.662 266.134 110.381 266.23 110.123 266.424C109.865 266.617 109.631 266.887 109.42 267.232C109.209 267.578 109.021 267.979 108.857 268.437C108.699 268.894 108.567 269.386 108.462 269.913L107.618 274H104.973L106.177 268.261C106.224 268.062 106.259 267.874 106.282 267.698C106.306 267.522 106.317 267.361 106.317 267.215C106.317 266.846 106.244 266.573 106.098 266.397C105.957 266.222 105.743 266.134 105.456 266.134C105.157 266.134 104.879 266.233 104.621 266.433C104.363 266.632 104.129 266.907 103.918 267.259C103.707 267.604 103.52 268.006 103.355 268.463C103.197 268.92 103.062 269.409 102.951 269.931L102.09 274H99.4443ZM120.09 274.176C119.322 274.176 118.646 274.038 118.06 273.763C117.479 273.481 117.025 273.06 116.697 272.497C116.369 271.935 116.205 271.229 116.205 270.379C116.205 269.559 116.322 268.768 116.557 268.006C116.791 267.238 117.14 266.553 117.603 265.949C118.071 265.346 118.646 264.868 119.325 264.517C120.011 264.165 120.802 263.989 121.698 263.989C122.8 263.989 123.623 264.241 124.168 264.745C124.719 265.243 124.994 265.885 124.994 266.67C124.994 267.186 124.877 267.654 124.643 268.076C124.414 268.498 124.065 268.861 123.597 269.166C123.128 269.465 122.539 269.696 121.83 269.86C121.121 270.019 120.289 270.098 119.334 270.098H118.886C118.88 270.168 118.874 270.229 118.868 270.282C118.868 270.335 118.868 270.394 118.868 270.458C118.868 270.985 119.021 271.404 119.325 271.715C119.63 272.025 120.061 272.181 120.617 272.181C121.133 272.181 121.602 272.122 122.023 272.005C122.445 271.888 122.943 271.694 123.518 271.425V273.42C123.002 273.672 122.478 273.862 121.944 273.991C121.411 274.114 120.793 274.176 120.09 274.176ZM119.176 268.313H119.571C120.251 268.313 120.802 268.24 121.224 268.094C121.651 267.947 121.962 267.754 122.155 267.514C122.354 267.273 122.454 267.013 122.454 266.731C122.454 266.45 122.372 266.242 122.208 266.107C122.05 265.967 121.824 265.896 121.531 265.896C121.203 265.896 120.878 265.999 120.556 266.204C120.233 266.409 119.949 266.693 119.703 267.057C119.457 267.42 119.281 267.839 119.176 268.313Z" fill="#2563EB"/>
<path d="M188.466 94L191.182 81.1504H194.662C196.238 81.1504 197.46 81.5664 198.327 82.3984C199.194 83.2305 199.628 84.4346 199.628 86.0107C199.628 86.9834 199.525 87.8828 199.32 88.709C199.115 89.5352 198.813 90.2764 198.415 90.9326C198.022 91.583 197.533 92.1367 196.947 92.5938C196.367 93.0508 195.699 93.3994 194.943 93.6396C194.188 93.8799 193.35 94 192.43 94H188.466ZM191.621 91.75H192.553C193.145 91.75 193.672 91.6533 194.135 91.46C194.604 91.2607 195.008 90.9854 195.348 90.6338C195.693 90.2822 195.978 89.8721 196.2 89.4033C196.429 88.9346 196.599 88.4248 196.71 87.874C196.821 87.3174 196.877 86.7432 196.877 86.1514C196.877 85.208 196.657 84.5107 196.218 84.0596C195.778 83.6084 195.175 83.3828 194.407 83.3828H193.396L191.621 91.75ZM204.734 94.1758C203.996 94.1758 203.343 94.0234 202.774 93.7188C202.212 93.4141 201.77 92.9805 201.447 92.418C201.131 91.8496 200.973 91.1758 200.973 90.3965C200.973 89.6992 201.04 89.0342 201.175 88.4014C201.315 87.7627 201.523 87.1768 201.799 86.6436C202.08 86.1045 202.429 85.6387 202.845 85.2461C203.267 84.8477 203.756 84.54 204.312 84.3232C204.869 84.1006 205.496 83.9893 206.193 83.9893C206.955 83.9893 207.614 84.1445 208.171 84.4551C208.728 84.7598 209.158 85.2021 209.463 85.7822C209.768 86.3623 209.92 87.0625 209.92 87.8828C209.92 88.5508 209.853 89.1953 209.718 89.8164C209.589 90.4316 209.39 91.0059 209.12 91.5391C208.851 92.0664 208.511 92.5293 208.101 92.9277C207.69 93.3203 207.204 93.6279 206.642 93.8506C206.085 94.0674 205.449 94.1758 204.734 94.1758ZM204.954 92.0225C205.247 92.0225 205.514 91.9492 205.754 91.8027C205.994 91.6504 206.208 91.4424 206.396 91.1787C206.583 90.9092 206.738 90.6016 206.861 90.2559C206.99 89.9043 207.087 89.5264 207.151 89.1221C207.222 88.7178 207.257 88.3047 207.257 87.8828C207.257 87.5488 207.216 87.2529 207.134 86.9951C207.058 86.7314 206.926 86.5264 206.738 86.3799C206.557 86.2275 206.311 86.1514 206 86.1514C205.678 86.1514 205.388 86.2422 205.13 86.4238C204.878 86.5996 204.658 86.8369 204.471 87.1357C204.283 87.4346 204.128 87.7686 204.005 88.1377C203.882 88.5068 203.788 88.8877 203.724 89.2803C203.665 89.667 203.636 90.0391 203.636 90.3965C203.636 90.9297 203.744 91.334 203.961 91.6094C204.178 91.8848 204.509 92.0225 204.954 92.0225ZM211.036 94L213.119 84.1738H215.141L214.956 85.9932H215.035C215.287 85.6006 215.565 85.2549 215.87 84.9561C216.175 84.6572 216.512 84.4229 216.881 84.2529C217.256 84.0771 217.672 83.9893 218.129 83.9893C218.803 83.9893 219.324 84.168 219.693 84.5254C220.068 84.877 220.314 85.3662 220.432 85.9932H220.502C220.748 85.6006 221.026 85.2549 221.337 84.9561C221.647 84.6572 221.993 84.4229 222.374 84.2529C222.761 84.0771 223.18 83.9893 223.631 83.9893C224.451 83.9893 225.063 84.2441 225.468 84.7539C225.878 85.2637 226.083 85.9521 226.083 86.8193C226.083 87.0361 226.065 87.2793 226.03 87.5488C225.995 87.8184 225.945 88.1025 225.881 88.4014L224.712 94H222.066L223.279 88.2607C223.326 88.0615 223.361 87.874 223.385 87.6982C223.408 87.5225 223.42 87.3613 223.42 87.2148C223.42 86.8457 223.347 86.5732 223.2 86.3975C223.06 86.2217 222.846 86.1338 222.559 86.1338C222.254 86.1338 221.973 86.2305 221.715 86.4238C221.457 86.6172 221.223 86.8867 221.012 87.2324C220.801 87.5781 220.613 87.9795 220.449 88.4365C220.291 88.8936 220.159 89.3857 220.054 89.9131L219.21 94H216.564L217.769 88.2607C217.815 88.0615 217.851 87.874 217.874 87.6982C217.897 87.5225 217.909 87.3613 217.909 87.2148C217.909 86.8457 217.836 86.5732 217.689 86.3975C217.549 86.2217 217.335 86.1338 217.048 86.1338C216.749 86.1338 216.471 86.2334 216.213 86.4326C215.955 86.6318 215.721 86.9072 215.51 87.2588C215.299 87.6045 215.111 88.0059 214.947 88.4629C214.789 88.9199 214.654 89.4092 214.543 89.9307L213.682 94H211.036ZM230.574 94.1758C230.1 94.1758 229.651 94.0586 229.229 93.8242C228.808 93.5898 228.462 93.2119 228.192 92.6904C227.929 92.1689 227.797 91.4775 227.797 90.6162C227.797 89.9717 227.864 89.333 227.999 88.7002C228.14 88.0674 228.339 87.4697 228.597 86.9072C228.86 86.3389 229.177 85.8379 229.546 85.4043C229.921 84.9648 230.343 84.6191 230.812 84.3672C231.286 84.1152 231.799 83.9893 232.35 83.9893C232.766 83.9893 233.129 84.0508 233.439 84.1738C233.75 84.291 234.017 84.458 234.239 84.6748C234.462 84.8916 234.644 85.1436 234.784 85.4307H234.854L235.355 84.1738H237.395L235.303 94H233.325L233.448 92.7256H233.378C233.144 93.0127 232.889 93.2646 232.613 93.4814C232.338 93.6982 232.033 93.8682 231.699 93.9912C231.365 94.1143 230.99 94.1758 230.574 94.1758ZM231.611 92.04C231.975 92.04 232.312 91.8994 232.622 91.6182C232.933 91.3311 233.199 90.959 233.422 90.502C233.645 90.0449 233.803 89.5615 233.896 89.0518C233.943 88.8174 233.976 88.583 233.993 88.3486C234.017 88.1084 234.028 87.8506 234.028 87.5752C234.028 87.1592 233.917 86.8164 233.694 86.5469C233.478 86.2715 233.179 86.1338 232.798 86.1338C232.54 86.1338 232.294 86.2188 232.06 86.3887C231.831 86.5527 231.62 86.7812 231.427 87.0742C231.233 87.3613 231.063 87.6924 230.917 88.0674C230.776 88.4365 230.668 88.8291 230.592 89.2451C230.516 89.6611 230.478 90.0771 230.478 90.4932C230.478 91.0029 230.577 91.3896 230.776 91.6533C230.976 91.9111 231.254 92.04 231.611 92.04ZM238.036 94L240.119 84.1738H242.765L240.682 94H238.036ZM241.868 82.9521C241.493 82.9521 241.177 82.8701 240.919 82.7061C240.667 82.542 240.541 82.2637 240.541 81.8711C240.541 81.5312 240.603 81.2471 240.726 81.0186C240.854 80.79 241.039 80.6172 241.279 80.5C241.52 80.3828 241.807 80.3242 242.141 80.3242C242.492 80.3242 242.797 80.4004 243.055 80.5527C243.318 80.7051 243.45 80.9805 243.45 81.3789C243.45 81.8477 243.321 82.2285 243.063 82.5215C242.806 82.8086 242.407 82.9521 241.868 82.9521ZM243.38 94L245.463 84.1738H247.484L247.3 85.9932H247.379C247.631 85.6006 247.909 85.2549 248.214 84.9561C248.519 84.6572 248.855 84.4229 249.225 84.2529C249.6 84.0771 250.016 83.9893 250.473 83.9893C251.035 83.9893 251.504 84.1064 251.879 84.3408C252.26 84.5693 252.544 84.8945 252.731 85.3164C252.919 85.7383 253.013 86.2393 253.013 86.8193C253.013 87.0361 252.995 87.2793 252.96 87.5488C252.925 87.8184 252.875 88.1025 252.811 88.4014L251.642 94H248.996L250.2 88.2607C250.247 88.0615 250.282 87.874 250.306 87.6982C250.329 87.5225 250.341 87.3613 250.341 87.2148C250.341 86.8457 250.262 86.5732 250.104 86.3975C249.945 86.2217 249.708 86.1338 249.392 86.1338C248.993 86.1338 248.633 86.3066 248.311 86.6523C247.988 86.9922 247.707 87.4492 247.467 88.0234C247.232 88.5977 247.039 89.2334 246.887 89.9307L246.025 94H243.38ZM258.937 94L261.02 84.1738H263.041L262.856 85.9932H262.936C263.188 85.6006 263.466 85.2549 263.771 84.9561C264.075 84.6572 264.412 84.4229 264.781 84.2529C265.156 84.0771 265.572 83.9893 266.029 83.9893C266.592 83.9893 267.061 84.1064 267.436 84.3408C267.816 84.5693 268.101 84.8945 268.288 85.3164C268.476 85.7383 268.569 86.2393 268.569 86.8193C268.569 87.0361 268.552 87.2793 268.517 87.5488C268.481 87.8184 268.432 88.1025 268.367 88.4014L267.198 94H264.553L265.757 88.2607C265.804 88.0615 265.839 87.874 265.862 87.6982C265.886 87.5225 265.897 87.3613 265.897 87.2148C265.897 86.8457 265.818 86.5732 265.66 86.3975C265.502 86.2217 265.265 86.1338 264.948 86.1338C264.55 86.1338 264.189 86.3066 263.867 86.6523C263.545 86.9922 263.264 87.4492 263.023 88.0234C262.789 88.5977 262.596 89.2334 262.443 89.9307L261.582 94H258.937ZM273.061 94.1758C272.586 94.1758 272.138 94.0586 271.716 93.8242C271.294 93.5898 270.948 93.2119 270.679 92.6904C270.415 92.1689 270.283 91.4775 270.283 90.6162C270.283 89.9717 270.351 89.333 270.485 88.7002C270.626 88.0674 270.825 87.4697 271.083 86.9072C271.347 86.3389 271.663 85.8379 272.032 85.4043C272.407 84.9648 272.829 84.6191 273.298 84.3672C273.772 84.1152 274.285 83.9893 274.836 83.9893C275.252 83.9893 275.615 84.0508 275.926 84.1738C276.236 84.291 276.503 84.458 276.726 84.6748C276.948 84.8916 277.13 85.1436 277.271 85.4307H277.341L277.842 84.1738H279.881L277.789 94H275.812L275.935 92.7256H275.864C275.63 93.0127 275.375 93.2646 275.1 93.4814C274.824 93.6982 274.52 93.8682 274.186 93.9912C273.852 94.1143 273.477 94.1758 273.061 94.1758ZM274.098 92.04C274.461 92.04 274.798 91.8994 275.108 91.6182C275.419 91.3311 275.686 90.959 275.908 90.502C276.131 90.0449 276.289 89.5615 276.383 89.0518C276.43 88.8174 276.462 88.583 276.479 88.3486C276.503 88.1084 276.515 87.8506 276.515 87.5752C276.515 87.1592 276.403 86.8164 276.181 86.5469C275.964 86.2715 275.665 86.1338 275.284 86.1338C275.026 86.1338 274.78 86.2188 274.546 86.3887C274.317 86.5527 274.106 86.7812 273.913 87.0742C273.72 87.3613 273.55 87.6924 273.403 88.0674C273.263 88.4365 273.154 88.8291 273.078 89.2451C273.002 89.6611 272.964 90.0771 272.964 90.4932C272.964 91.0029 273.063 91.3896 273.263 91.6533C273.462 91.9111 273.74 92.04 274.098 92.04ZM280.522 94L282.605 84.1738H284.627L284.442 85.9932H284.521C284.773 85.6006 285.052 85.2549 285.356 84.9561C285.661 84.6572 285.998 84.4229 286.367 84.2529C286.742 84.0771 287.158 83.9893 287.615 83.9893C288.289 83.9893 288.811 84.168 289.18 84.5254C289.555 84.877 289.801 85.3662 289.918 85.9932H289.988C290.234 85.6006 290.513 85.2549 290.823 84.9561C291.134 84.6572 291.479 84.4229 291.86 84.2529C292.247 84.0771 292.666 83.9893 293.117 83.9893C293.938 83.9893 294.55 84.2441 294.954 84.7539C295.364 85.2637 295.569 85.9521 295.569 86.8193C295.569 87.0361 295.552 87.2793 295.517 87.5488C295.481 87.8184 295.432 88.1025 295.367 88.4014L294.198 94H291.553L292.766 88.2607C292.812 88.0615 292.848 87.874 292.871 87.6982C292.895 87.5225 292.906 87.3613 292.906 87.2148C292.906 86.8457 292.833 86.5732 292.687 86.3975C292.546 86.2217 292.332 86.1338 292.045 86.1338C291.74 86.1338 291.459 86.2305 291.201 86.4238C290.943 86.6172 290.709 86.8867 290.498 87.2324C290.287 87.5781 290.1 87.9795 289.936 88.4365C289.777 88.8936 289.646 89.3857 289.54 89.9131L288.696 94H286.051L287.255 88.2607C287.302 88.0615 287.337 87.874 287.36 87.6982C287.384 87.5225 287.396 87.3613 287.396 87.2148C287.396 86.8457 287.322 86.5732 287.176 86.3975C287.035 86.2217 286.821 86.1338 286.534 86.1338C286.235 86.1338 285.957 86.2334 285.699 86.4326C285.441 86.6318 285.207 86.9072 284.996 87.2588C284.785 87.6045 284.598 88.0059 284.434 88.4629C284.275 88.9199 284.141 89.4092 284.029 89.9307L283.168 94H280.522ZM301.168 94.1758C300.4 94.1758 299.724 94.0381 299.138 93.7627C298.558 93.4814 298.104 93.0596 297.775 92.4971C297.447 91.9346 297.283 91.2285 297.283 90.3789C297.283 89.5586 297.4 88.7676 297.635 88.0059C297.869 87.2383 298.218 86.5527 298.681 85.9492C299.149 85.3457 299.724 84.8682 300.403 84.5166C301.089 84.165 301.88 83.9893 302.776 83.9893C303.878 83.9893 304.701 84.2412 305.246 84.7451C305.797 85.2432 306.072 85.8848 306.072 86.6699C306.072 87.1855 305.955 87.6543 305.721 88.0762C305.492 88.498 305.144 88.8613 304.675 89.166C304.206 89.4648 303.617 89.6963 302.908 89.8604C302.199 90.0186 301.367 90.0977 300.412 90.0977H299.964C299.958 90.168 299.952 90.2295 299.946 90.2822C299.946 90.335 299.946 90.3936 299.946 90.458C299.946 90.9854 300.099 91.4043 300.403 91.7148C300.708 92.0254 301.139 92.1807 301.695 92.1807C302.211 92.1807 302.68 92.1221 303.102 92.0049C303.523 91.8877 304.021 91.6943 304.596 91.4248V93.4199C304.08 93.6719 303.556 93.8623 303.022 93.9912C302.489 94.1143 301.871 94.1758 301.168 94.1758ZM300.254 88.3135H300.649C301.329 88.3135 301.88 88.2402 302.302 88.0938C302.729 87.9473 303.04 87.7539 303.233 87.5137C303.433 87.2734 303.532 87.0127 303.532 86.7314C303.532 86.4502 303.45 86.2422 303.286 86.1074C303.128 85.9668 302.902 85.8965 302.609 85.8965C302.281 85.8965 301.956 85.999 301.634 86.2041C301.312 86.4092 301.027 86.6934 300.781 87.0566C300.535 87.4199 300.359 87.8389 300.254 88.3135Z" fill="#059669"/>
</svg>
